<svg version="1.2" baseProfile="tiny-ps" xmlns="http://www.w3.org/2000/svg" viewBox="0 0 1800 1320" width="1920" height="1408">
	<style>
		tspan { white-space:pre }
		.shp0 { fill: #000000 } 
		.shp1 { fill: #020202 } 
	</style>
	<g id="Layer 2">
		<g id="&lt;Clip Group&gt;">
			<g id="&lt;Group&gt;">
				<g id="&lt;Group&gt;">
					<g id="&lt;Group&gt;">
						<path id="&lt;Path&gt;" class="shp0" d="M2089.38 864.24L1655.61 613.8L1655.97 613.18L2089.74 863.62L2089.38 864.24Z" />
					</g>
					<g id="&lt;Group&gt;">
						<path id="&lt;Path&gt;" class="shp0" d="M1439.66 655.47L1439.3 654.85L1873.07 404.41L1873.43 405.03L1439.66 655.47Z" />
					</g>
					<g id="&lt;Group&gt;">
						<path id="&lt;Path&gt;" class="shp0" d="M792.9 820.47L792.58 819.92L1133.71 622.96L1134.03 623.52L792.9 820.47Z" />
					</g>
					<g id="&lt;Group&gt;">
						<path id="&lt;Path&gt;" class="shp0" d="M502.38 1486.13L502.02 1485.5L935.79 1235.06L936.15 1235.69L502.38 1486.13Z" />
					</g>
					<g id="&lt;Group&gt;">
						<path id="&lt;Path&gt;" class="shp0" d="M539.34 1007.37L221.03 823.6L221.34 823.07L539.64 1006.84L539.34 1007.37Z" />
					</g>
					<g id="&lt;Group&gt;">
						<path id="&lt;Path&gt;" class="shp0" d="M402.32 1011.41L84.01 827.64L84.32 827.11L402.62 1010.88L402.32 1011.41Z" />
					</g>
					<g id="&lt;Group&gt;">
						<path id="&lt;Path&gt;" class="shp0" d="M1473.31 757.87L1155 574.1L1155.31 573.57L1473.62 757.34L1473.31 757.87Z" />
					</g>
					<g id="&lt;Group&gt;">
						<path id="&lt;Path&gt;" class="shp0" d="M1116.83 1174.13L863.56 1027.9L863.84 1027.43L1117.11 1173.65L1116.83 1174.13Z" />
					</g>
				</g>
				<g id="&lt;Group&gt;">
					<g id="&lt;Group&gt;">
						<path id="&lt;Compound Path&gt;" fill-rule="evenodd" class="shp0" d="M575.84 738.46L575.66 738.35L503.5 696.69L503.5 613.15L503.68 613.04L575.84 571.37L648.19 613.15L648.19 696.69L648.01 696.79L575.84 738.46ZM504.22 696.27L575.84 737.63L647.47 696.27L647.47 613.56L575.84 572.21L504.22 613.56L504.22 696.27Z" />
					</g>
					<g id="&lt;Group&gt;">
						<path id="&lt;Compound Path&gt;" fill-rule="evenodd" class="shp0" d="M863.8 821.58L863.62 821.48L791.45 779.81L791.45 696.27L791.63 696.17L863.8 654.5L863.98 654.6L936.15 696.27L936.15 779.81L935.97 779.92L863.8 821.58ZM792.17 779.4L863.8 820.75L935.43 779.4L935.43 696.69L863.8 655.33L792.17 696.69L792.17 779.4Z" />
					</g>
					<g id="&lt;Group&gt;">
						<path id="&lt;Compound Path&gt;" fill-rule="evenodd" class="shp0" d="M791.81 821.84L791.33 821.56L718.86 779.72L718.86 695.48L719.34 695.21L791.81 653.37L864.76 695.48L864.76 779.72L864.28 780L791.81 821.84ZM720.78 778.61L791.81 819.62L862.84 778.61L862.84 696.59L791.81 655.58L720.78 696.59L720.78 778.61Z" />
					</g>
					<g id="&lt;Group&gt;">
						<path id="&lt;Compound Path&gt;" fill-rule="evenodd" class="shp0" d="M1007.78 696.44L1007.6 696.34L935.43 654.67L935.43 571.13L935.61 571.02L1007.78 529.36L1080.13 571.13L1080.13 654.67L1079.95 654.77L1007.78 696.44ZM936.15 654.25L1007.78 695.61L1079.41 654.25L1079.41 571.54L1007.78 530.19L936.15 571.54L936.15 654.25Z" />
					</g>
					<g id="&lt;Group&gt;">
						<path id="&lt;Compound Path&gt;" fill-rule="evenodd" class="shp0" d="M935.79 738.02L935.61 737.91L863.44 696.25L863.44 612.71L863.62 612.6L935.79 570.93L1008.14 612.71L1008.14 696.25L1007.96 696.35L935.79 738.02ZM864.16 695.83L935.79 737.19L1007.42 695.83L1007.42 613.12L935.79 571.77L864.16 613.12L864.16 695.83Z" />
					</g>
					<g id="&lt;Group&gt;">
						<path id="&lt;Compound Path&gt;" fill-rule="evenodd" class="shp0" d="M575.84 780.26L575.37 779.98L502.9 738.14L502.9 653.91L575.84 611.79L648.79 653.91L648.79 738.14L648.31 738.42L575.84 780.26ZM504.82 737.03L575.84 778.04L646.87 737.03L646.87 655.02L575.84 614.01L504.82 655.02L504.82 737.03Z" />
					</g>
					<g id="&lt;Group&gt;">
						<path id="&lt;Compound Path&gt;" fill-rule="evenodd" class="shp0" d="M503.86 821.14L503.68 821.04L431.51 779.37L431.51 695.83L431.69 695.73L503.86 654.06L576.2 695.83L576.2 779.37L576.03 779.48L503.86 821.14ZM432.23 778.96L503.86 820.31L575.49 778.96L575.49 696.25L503.86 654.89L432.23 696.25L432.23 778.96Z" />
					</g>
					<g id="&lt;Group&gt;">
						<path id="&lt;Compound Path&gt;" fill-rule="evenodd" class="shp0" d="M719.82 779.57L719.64 779.46L647.47 737.8L647.47 654.25L647.65 654.15L719.82 612.48L792.17 654.25L792.17 737.8L791.99 737.9L719.82 779.57ZM648.19 737.38L719.82 778.73L791.45 737.38L791.45 654.67L719.82 613.31L648.19 654.67L648.19 737.38Z" />
					</g>
					<g id="&lt;Group&gt;">
						<path id="&lt;Compound Path&gt;" fill-rule="evenodd" class="shp0" d="M719.82 696.44L719.64 696.34L647.47 654.67L647.47 571.13L647.65 571.02L719.82 529.36L792.17 571.13L792.17 654.67L791.99 654.77L719.82 696.44ZM648.19 654.25L719.82 695.61L791.45 654.25L791.45 571.54L719.82 530.19L648.19 571.54L648.19 654.25Z" />
					</g>
					<g id="&lt;Group&gt;">
						<path id="&lt;Compound Path&gt;" fill-rule="evenodd" class="shp0" d="M1079.77 1445.74L1079.29 1445.46L1006.82 1403.62L1006.82 1319.39L1007.3 1319.11L1079.77 1277.27L1080.25 1277.55L1152.72 1319.39L1152.72 1403.62L1152.24 1403.9L1079.77 1445.74ZM1008.74 1402.51L1079.77 1443.52L1150.8 1402.51L1150.8 1320.5L1079.77 1279.49L1008.74 1320.5L1008.74 1402.51Z" />
					</g>
					<g id="&lt;Group&gt;">
						<path id="&lt;Compound Path&gt;" fill-rule="evenodd" class="shp0" d="M1007.78 1486.62L1007.6 1486.52L935.43 1444.85L935.43 1361.31L935.61 1361.21L1007.78 1319.54L1007.96 1319.64L1080.13 1361.31L1080.13 1444.85L1079.95 1444.96L1007.78 1486.62ZM936.15 1444.44L1007.78 1485.79L1079.41 1444.44L1079.41 1361.73L1007.78 1320.37L936.15 1361.73L936.15 1444.44Z" />
					</g>
					<g id="&lt;Group&gt;">
						<path id="&lt;Compound Path&gt;" fill-rule="evenodd" class="shp0" d="M935.79 1445.05L935.61 1444.94L863.44 1403.27L863.44 1319.73L863.62 1319.63L935.79 1277.96L935.97 1278.07L1008.14 1319.73L1008.14 1403.27L1007.96 1403.38L935.79 1445.05ZM864.16 1402.86L935.79 1444.21L1007.42 1402.86L1007.42 1320.15L935.79 1278.79L864.16 1320.15L864.16 1402.86Z" />
					</g>
					<g id="&lt;Group&gt;">
						<path id="&lt;Compound Path&gt;" fill-rule="evenodd" class="shp0" d="M935.79 1362.61L935.31 1362.34L862.84 1320.5L862.84 1236.26L863.32 1235.98L935.79 1194.14L936.27 1194.42L1008.74 1236.26L1008.74 1320.5L1008.26 1320.77L935.79 1362.61ZM864.76 1319.39L935.79 1360.4L1006.82 1319.39L1006.82 1237.37L935.79 1196.36L864.76 1237.37L864.76 1319.39Z" />
					</g>
					<g id="&lt;Group&gt;">
						<path id="&lt;Compound Path&gt;" fill-rule="evenodd" class="shp0" d="M503.86 1485.73L503.68 1485.63L431.51 1443.96L431.51 1360.42L431.69 1360.32L503.86 1318.65L504.04 1318.75L576.2 1360.42L576.2 1443.96L576.02 1444.07L503.86 1485.73ZM432.23 1443.55L503.86 1484.9L575.49 1443.55L575.49 1360.84L503.86 1319.48L432.23 1360.84L432.23 1443.55Z" />
					</g>
					<g id="&lt;Group&gt;">
						<path id="&lt;Compound Path&gt;" fill-rule="evenodd" class="shp0" d="M431.87 1527.31L431.69 1527.21L359.52 1485.54L359.52 1402L359.7 1401.89L431.87 1360.23L432.05 1360.33L504.22 1402L504.22 1485.54L504.04 1485.64L431.87 1527.31ZM360.24 1485.12L431.87 1526.48L503.5 1485.12L503.5 1402.41L431.87 1361.06L360.24 1402.41L360.24 1485.12Z" />
					</g>
					<g id="&lt;Group&gt;">
						<path id="&lt;Compound Path&gt;" fill-rule="evenodd" class="shp0" d="M359.88 1485.73L359.7 1485.63L287.53 1443.96L287.53 1360.42L287.71 1360.32L359.88 1318.65L360.06 1318.75L432.23 1360.42L432.23 1443.96L432.05 1444.07L359.88 1485.73ZM288.25 1443.55L359.88 1484.9L431.51 1443.55L431.51 1360.84L359.88 1319.48L288.25 1360.84L288.25 1443.55Z" />
					</g>
					<g id="&lt;Group&gt;">
						<path id="&lt;Compound Path&gt;" fill-rule="evenodd" class="shp0" d="M359.88 1402.61L359.7 1402.5L287.53 1360.84L287.53 1277.3L287.71 1277.19L359.88 1235.52L360.06 1235.63L432.23 1277.3L432.23 1360.84L432.05 1360.94L359.88 1402.61ZM288.25 1360.42L359.88 1401.78L431.51 1360.42L431.51 1277.71L359.88 1236.36L288.25 1277.71L288.25 1360.42Z" />
					</g>
					<g id="&lt;Group&gt;">
						<path id="&lt;Compound Path&gt;" fill-rule="evenodd" class="shp0" d="M1223.75 1320.79L1223.57 1320.68L1151.4 1279.02L1151.4 1195.48L1151.58 1195.37L1223.75 1153.7L1223.93 1153.81L1296.09 1195.48L1296.09 1279.02L1295.91 1279.12L1223.75 1320.79ZM1152.12 1278.6L1223.75 1319.96L1295.37 1278.6L1295.37 1195.89L1223.75 1154.54L1152.12 1195.89L1152.12 1278.6Z" />
					</g>
					<g id="&lt;Group&gt;">
						<path id="&lt;Compound Path&gt;" fill-rule="evenodd" class="shp0" d="M1151.76 1320.35L1151.58 1320.24L1079.41 1278.58L1079.41 1195.04L1079.59 1194.93L1151.76 1153.26L1151.94 1153.37L1224.11 1195.04L1224.11 1278.58L1223.93 1278.68L1151.76 1320.35ZM1080.13 1278.16L1151.76 1319.52L1223.39 1278.16L1223.39 1195.45L1151.76 1154.1L1080.13 1195.45L1080.13 1278.16Z" />
					</g>
					<g id="&lt;Group&gt;">
						<path id="&lt;Compound Path&gt;" fill-rule="evenodd" class="shp0" d="M1367.72 1195.64L1367.54 1195.54L1295.37 1153.87L1295.37 1070.33L1295.55 1070.23L1367.72 1028.56L1367.9 1028.67L1440.07 1070.33L1440.07 1153.87L1439.89 1153.98L1367.72 1195.64ZM1296.09 1153.46L1367.72 1194.81L1439.35 1153.46L1439.35 1070.75L1367.72 1029.39L1296.09 1070.75L1296.09 1153.46Z" />
					</g>
					<g id="&lt;Group&gt;">
						<path id="&lt;Compound Path&gt;" fill-rule="evenodd" class="shp0" d="M1079.77 1278.77L1079.59 1278.67L1007.42 1237L1007.42 1153.46L1007.6 1153.35L1079.77 1111.69L1079.95 1111.79L1152.12 1153.46L1152.12 1237L1151.94 1237.1L1079.77 1278.77ZM1008.14 1236.58L1079.77 1277.94L1151.4 1236.58L1151.4 1153.87L1079.77 1112.52L1008.14 1153.87L1008.14 1236.58Z" />
					</g>
					<g id="&lt;Group&gt;">
						<path id="&lt;Compound Path&gt;" fill-rule="evenodd" class="shp0" d="M1655.68 1445.74L1655.2 1445.46L1582.73 1403.62L1582.73 1319.39L1583.21 1319.11L1655.68 1277.27L1656.16 1277.55L1728.63 1319.39L1728.63 1403.62L1728.15 1403.9L1655.68 1445.74ZM1584.65 1402.51L1655.68 1443.52L1726.71 1402.51L1726.71 1320.5L1655.68 1279.49L1584.65 1320.5L1584.65 1402.51Z" />
					</g>
					<g id="&lt;Group&gt;">
						<path id="&lt;Compound Path&gt;" fill-rule="evenodd" class="shp0" d="M1583.69 1486.62L1583.51 1486.52L1511.34 1444.85L1511.34 1361.31L1511.52 1361.21L1583.69 1319.54L1583.87 1319.64L1656.04 1361.31L1656.04 1444.85L1655.86 1444.96L1583.69 1486.62ZM1512.06 1444.44L1583.69 1485.79L1655.32 1444.44L1655.32 1361.73L1583.69 1320.37L1512.06 1361.73L1512.06 1444.44Z" />
					</g>
					<g id="&lt;Group&gt;">
						<path id="&lt;Compound Path&gt;" fill-rule="evenodd" class="shp0" d="M1799.66 1320.79L1799.48 1320.68L1727.31 1279.02L1727.31 1195.48L1727.49 1195.37L1799.66 1153.7L1799.84 1153.81L1872.01 1195.48L1872.01 1279.02L1871.83 1279.12L1799.66 1320.79ZM1728.03 1278.6L1799.66 1319.96L1871.29 1278.6L1871.29 1195.89L1799.66 1154.54L1728.03 1195.89L1728.03 1278.6Z" />
					</g>
					<g id="&lt;Group&gt;">
						<path id="&lt;Compound Path&gt;" fill-rule="evenodd" class="shp0" d="M1727.67 1320.35L1727.49 1320.24L1655.32 1278.58L1655.32 1195.04L1655.5 1194.93L1727.67 1153.26L1727.85 1153.37L1800.02 1195.04L1800.02 1278.58L1799.84 1278.68L1727.67 1320.35ZM1656.04 1278.16L1727.67 1319.52L1799.3 1278.16L1799.3 1195.45L1727.67 1154.1L1656.04 1195.45L1656.04 1278.16Z" />
					</g>
					<g id="&lt;Group&gt;">
						<path id="&lt;Compound Path&gt;" fill-rule="evenodd" class="shp0" d="M1655.68 1278.77L1655.5 1278.67L1583.33 1237L1583.33 1153.46L1583.51 1153.35L1655.68 1111.69L1655.86 1111.79L1728.03 1153.46L1728.03 1237L1727.85 1237.1L1655.68 1278.77ZM1584.05 1236.58L1655.68 1277.94L1727.31 1236.58L1727.31 1153.87L1655.68 1112.52L1584.05 1153.87L1584.05 1236.58Z" />
					</g>
					<g id="&lt;Group&gt;">
						<path id="&lt;Compound Path&gt;" fill-rule="evenodd" class="shp0" d="M1079.77 1195.64L1079.59 1195.54L1007.42 1153.87L1007.42 1070.33L1007.6 1070.23L1079.77 1028.56L1079.95 1028.67L1152.12 1070.33L1152.12 1153.87L1151.94 1153.98L1079.77 1195.64ZM1008.14 1153.46L1079.77 1194.81L1151.4 1153.46L1151.4 1070.75L1079.77 1029.39L1008.14 1070.75L1008.14 1153.46Z" />
					</g>
					<g id="&lt;Group&gt;">
						<path id="&lt;Compound Path&gt;" fill-rule="evenodd" class="shp0" d="M1223.75 1195.64L1223.57 1195.54L1151.4 1153.87L1151.4 1070.33L1151.58 1070.23L1223.75 1028.56L1223.93 1028.67L1296.09 1070.33L1296.09 1153.87L1295.91 1153.98L1223.75 1195.64ZM1152.12 1153.46L1223.75 1194.81L1295.37 1153.46L1295.37 1070.75L1223.75 1029.39L1152.12 1070.75L1152.12 1153.46Z" />
					</g>
					<g id="&lt;Group&gt;">
						<path id="&lt;Compound Path&gt;" fill-rule="evenodd" class="shp0" d="M1223.75 1113.21L1223.27 1112.93L1150.8 1071.09L1150.8 986.86L1151.28 986.58L1223.75 944.74L1224.23 945.02L1296.69 986.86L1296.69 1071.09L1296.21 1071.37L1223.75 1113.21ZM1152.72 1069.99L1223.75 1110.99L1294.77 1069.99L1294.77 987.97L1223.75 946.96L1152.72 987.97L1152.72 1069.99Z" />
					</g>
					<g id="&lt;Group&gt;">
						<path id="&lt;Compound Path&gt;" fill-rule="evenodd" class="shp0" d="M647.83 904.25L647.65 904.15L575.48 862.48L575.48 778.94L575.66 778.84L647.83 737.17L648.01 737.28L720.18 778.94L720.18 862.48L720 862.59L647.83 904.25ZM576.2 862.07L647.83 903.42L719.46 862.07L719.46 779.36L647.83 738L576.2 779.36L576.2 862.07Z" />
					</g>
					<g id="&lt;Group&gt;">
						<path id="&lt;Compound Path&gt;" fill-rule="evenodd" class="shp0" d="M935.79 987.38L935.61 987.28L863.44 945.61L863.44 862.07L863.62 861.96L935.79 820.3L935.97 820.4L1008.14 862.07L1008.14 945.61L1007.96 945.71L935.79 987.38ZM864.16 945.19L935.79 986.55L1007.42 945.19L1007.42 862.48L935.79 821.13L864.16 862.48L864.16 945.19Z" />
					</g>
					<g id="&lt;Group&gt;">
						<path id="&lt;Compound Path&gt;" fill-rule="evenodd" class="shp0" d="M1007.78 904.69L1007.6 904.59L935.43 862.92L935.43 779.38L935.61 779.27L1007.78 737.61L1007.96 737.71L1080.13 779.38L1080.13 862.92L1079.95 863.02L1007.78 904.69ZM936.15 862.5L1007.78 903.86L1079.41 862.5L1079.41 779.79L1007.78 738.44L936.15 779.79L936.15 862.5Z" />
					</g>
					<g id="&lt;Group&gt;">
						<path id="&lt;Compound Path&gt;" fill-rule="evenodd" class="shp0" d="M1079.77 946.98L1079.29 946.7L1006.82 904.86L1006.82 820.63L1007.3 820.35L1079.77 778.51L1080.25 778.79L1152.72 820.63L1152.72 904.86L1152.24 905.14L1079.77 946.98ZM1008.74 903.75L1079.77 944.76L1150.8 903.75L1150.8 821.74L1079.77 780.73L1008.74 821.74L1008.74 903.75Z" />
					</g>
					<g id="&lt;Group&gt;">
						<path id="&lt;Compound Path&gt;" fill-rule="evenodd" class="shp0" d="M1223.74 821.14L1223.57 821.04L1151.4 779.37L1151.4 695.83L1151.58 695.73L1223.74 654.06L1296.09 695.83L1296.09 779.37L1295.91 779.48L1223.74 821.14ZM1152.12 778.96L1223.74 820.31L1295.37 778.96L1295.37 696.25L1223.74 654.89L1152.12 696.25L1152.12 778.96Z" />
					</g>
					<g id="&lt;Group&gt;">
						<path id="&lt;Compound Path&gt;" fill-rule="evenodd" class="shp0" d="M1151.76 862.72L1151.58 862.62L1079.41 820.95L1079.41 737.41L1079.59 737.3L1151.76 695.64L1151.94 695.74L1224.11 737.41L1224.11 820.95L1223.93 821.05L1151.76 862.72ZM1080.13 820.53L1151.76 861.89L1223.39 820.53L1223.39 737.82L1151.76 696.47L1080.13 737.82L1080.13 820.53Z" />
					</g>
					<g id="&lt;Group&gt;">
						<path id="&lt;Compound Path&gt;" fill-rule="evenodd" class="shp0" d="M1079.77 821.14L1079.59 821.04L1007.42 779.37L1007.42 695.83L1007.6 695.73L1079.77 654.06L1152.12 695.83L1152.12 779.37L1151.94 779.48L1079.77 821.14ZM1008.14 778.96L1079.77 820.31L1151.4 778.96L1151.4 696.25L1079.77 654.89L1008.14 696.25L1008.14 778.96Z" />
					</g>
					<g id="&lt;Group&gt;">
						<path id="&lt;Compound Path&gt;" fill-rule="evenodd" class="shp0" d="M1151.76 1112.08L1151.58 1111.98L1079.41 1070.31L1079.41 986.77L1079.59 986.67L1151.76 945L1151.94 945.1L1224.1 986.77L1224.1 1070.31L1223.93 1070.42L1151.76 1112.08ZM1080.13 1069.9L1151.76 1111.25L1223.39 1069.9L1223.39 987.19L1151.76 945.83L1080.13 987.19L1080.13 1069.9Z" />
					</g>
					<g id="&lt;Group&gt;">
						<path id="&lt;Compound Path&gt;" fill-rule="evenodd" class="shp0" d="M1079.77 1112.54L1079.59 1112.43L1007.42 1070.77L1007.42 987.22L1007.6 987.12L1079.77 945.45L1079.95 945.56L1152.12 987.22L1152.12 1070.77L1151.94 1070.87L1079.77 1112.54ZM1008.14 1070.35L1079.77 1111.71L1151.4 1070.35L1151.4 987.64L1079.77 946.29L1008.14 987.64L1008.14 1070.35Z" />
					</g>
					<g id="&lt;Group&gt;">
						<path id="&lt;Compound Path&gt;" fill-rule="evenodd" class="shp0" d="M1295.73 987.82L1295.55 987.71L1223.39 946.05L1223.39 862.5L1223.57 862.4L1295.73 820.73L1295.91 820.84L1368.08 862.5L1368.08 946.05L1367.9 946.15L1295.73 987.82ZM1224.1 945.63L1295.73 986.98L1367.36 945.63L1367.36 862.92L1295.73 821.56L1224.1 862.92L1224.1 945.63Z" />
					</g>
					<g id="&lt;Group&gt;">
						<path id="&lt;Compound Path&gt;" fill-rule="evenodd" class="shp0" d="M1223.74 1029.39L1223.57 1029.29L1151.4 987.62L1151.4 904.08L1151.58 903.98L1223.74 862.31L1223.93 862.41L1296.09 904.08L1296.09 987.62L1295.91 987.73L1223.74 1029.39ZM1152.12 987.21L1223.74 1028.56L1295.37 987.21L1295.37 904.5L1223.74 863.14L1152.12 904.5L1152.12 987.21Z" />
					</g>
					<g id="&lt;Group&gt;">
						<path id="&lt;Compound Path&gt;" fill-rule="evenodd" class="shp0" d="M503.86 1236.35L503.68 1236.25L431.51 1194.58L431.51 1111.04L431.69 1110.93L503.86 1069.27L504.04 1069.37L576.21 1111.04L576.21 1194.58L576.03 1194.68L503.86 1236.35ZM432.23 1194.16L503.86 1235.52L575.49 1194.16L575.49 1111.45L503.86 1070.1L432.23 1111.45L432.23 1194.16Z" />
					</g>
					<g id="&lt;Group&gt;">
						<path id="&lt;Compound Path&gt;" fill-rule="evenodd" class="shp0" d="M647.83 1111.21L647.65 1111.1L575.49 1069.44L575.49 985.89L575.67 985.79L647.83 944.12L648.01 944.23L720.18 985.89L720.18 1069.44L720 1069.54L647.83 1111.21ZM576.21 1069.02L647.83 1110.38L719.46 1069.02L719.46 986.31L647.83 944.96L576.21 986.31L576.21 1069.02Z" />
					</g>
					<g id="&lt;Group&gt;">
						<path id="&lt;Compound Path&gt;" fill-rule="evenodd" class="shp0" d="M575.85 1152.78L575.67 1152.68L503.5 1111.01L503.5 1027.47L503.68 1027.37L575.85 985.7L576.03 985.8L648.19 1027.47L648.19 1111.01L648.01 1111.12L575.85 1152.78ZM504.22 1110.6L575.85 1151.95L647.47 1110.6L647.47 1027.89L575.85 986.53L504.22 1027.89L504.22 1110.6Z" />
					</g>
					<g id="&lt;Group&gt;">
						<path id="&lt;Compound Path&gt;" fill-rule="evenodd" class="shp0" d="M575.84 1402.15L575.67 1402.04L503.5 1360.38L503.5 1276.83L503.68 1276.73L575.84 1235.06L576.03 1235.17L648.19 1276.83L648.19 1360.38L648.01 1360.48L575.84 1402.15ZM504.22 1359.96L575.84 1401.32L647.47 1359.96L647.47 1277.25L575.84 1235.89L504.22 1277.25L504.22 1359.96Z" />
					</g>
					<g id="&lt;Group&gt;">
						<path id="&lt;Compound Path&gt;" fill-rule="evenodd" class="shp0" d="M503.86 1402.6L503.68 1402.5L431.51 1360.83L431.51 1277.29L431.69 1277.18L503.86 1235.52L504.04 1235.62L576.2 1277.29L576.2 1360.83L576.03 1360.93L503.86 1402.6ZM432.23 1360.41L503.86 1401.77L575.49 1360.41L575.49 1277.7L503.86 1236.35L432.23 1277.7L432.23 1360.41Z" />
					</g>
					<g id="&lt;Group&gt;">
						<path id="&lt;Compound Path&gt;" fill-rule="evenodd" class="shp0" d="M719.82 1278.57L719.34 1278.3L646.87 1236.46L646.87 1152.22L647.35 1151.95L719.82 1110.1L720.3 1110.38L792.77 1152.22L792.77 1236.46L792.29 1236.73L719.82 1278.57ZM648.79 1235.35L719.82 1276.36L790.85 1235.35L790.85 1153.33L719.82 1112.32L648.79 1153.33L648.79 1235.35Z" />
					</g>
					<g id="&lt;Group&gt;">
						<path id="&lt;Compound Path&gt;" fill-rule="evenodd" class="shp0" d="M647.83 1319.46L647.65 1319.35L575.49 1277.69L575.49 1194.14L575.67 1194.04L647.83 1152.37L648.01 1152.48L720.18 1194.14L720.18 1277.69L720 1277.79L647.83 1319.46ZM576.21 1277.27L647.83 1318.63L719.46 1277.27L719.46 1194.56L647.83 1153.21L576.21 1194.56L576.21 1277.27Z" />
					</g>
					<g id="&lt;Group&gt;">
						<path id="&lt;Compound Path&gt;" fill-rule="evenodd" class="shp0" d="M719.82 1070.05L719.64 1069.95L647.47 1028.28L647.47 944.74L647.65 944.64L719.82 902.97L720 903.07L792.17 944.74L792.17 1028.28L791.99 1028.39L719.82 1070.05ZM648.19 1027.87L719.82 1069.22L791.45 1027.87L791.45 945.16L719.82 903.8L648.19 945.16L648.19 1027.87Z" />
					</g>
					<g id="&lt;Group&gt;">
						<path id="&lt;Compound Path&gt;" fill-rule="evenodd" class="shp0" d="M863.8 1028.08L863.62 1027.98L791.45 986.31L791.45 902.77L791.63 902.67L863.8 861L863.98 861.1L936.15 902.77L936.15 986.31L935.97 986.41L863.8 1028.08ZM792.17 985.89L863.8 1027.25L935.43 985.89L935.43 903.18L863.8 861.83L792.17 903.18L792.17 985.89Z" />
					</g>
					<g id="&lt;Group&gt;">
						<path id="&lt;Compound Path&gt;" fill-rule="evenodd" class="shp0" d="M863.8 1277.44L863.62 1277.34L791.45 1235.67L791.45 1152.13L791.63 1152.03L863.8 1110.36L863.98 1110.47L936.15 1152.13L936.15 1235.67L935.97 1235.78L863.8 1277.44ZM792.17 1235.26L863.8 1276.61L935.43 1235.26L935.43 1152.55L863.8 1111.19L792.17 1152.55L792.17 1235.26Z" />
					</g>
					<g id="&lt;Group&gt;">
						<path id="&lt;Compound Path&gt;" fill-rule="evenodd" class="shp0" d="M791.81 1278.79L791.63 1278.68L719.46 1237.02L719.46 1153.48L719.64 1153.37L791.81 1111.71L791.99 1111.81L864.16 1153.48L864.16 1237.02L863.98 1237.12L791.81 1278.79ZM720.18 1236.6L791.81 1277.96L863.44 1236.6L863.44 1153.89L791.81 1112.54L720.18 1153.89L720.18 1236.6Z" />
					</g>
					<g id="&lt;Group&gt;">
						<path id="&lt;Compound Path&gt;" fill-rule="evenodd" class="shp0" d="M791.81 1194.99L791.63 1194.89L719.46 1153.22L719.46 1069.68L719.64 1069.57L791.81 1027.91L791.99 1028.01L864.16 1069.68L864.16 1153.22L863.98 1153.32L791.81 1194.99ZM720.18 1152.8L791.81 1194.16L863.44 1152.8L863.44 1070.09L791.81 1028.74L720.18 1070.09L720.18 1152.8Z" />
					</g>
					<g id="&lt;Group&gt;">
						<path id="&lt;Compound Path&gt;" fill-rule="evenodd" class="shp0" d="M1583.69 1196.79L1583.21 1196.52L1510.74 1154.68L1510.74 1070.44L1511.22 1070.17L1583.69 1028.33L1584.17 1028.6L1656.64 1070.44L1656.64 1154.68L1656.16 1154.95L1583.69 1196.79ZM1512.66 1153.57L1583.69 1194.58L1654.72 1153.57L1654.72 1071.55L1583.69 1030.54L1512.66 1071.55L1512.66 1153.57Z" />
					</g>
					<g id="&lt;Group&gt;">
						<path id="&lt;Compound Path&gt;" fill-rule="evenodd" class="shp0" d="M1511.7 1195.66L1511.52 1195.56L1439.35 1153.89L1439.35 1070.35L1439.53 1070.25L1511.7 1028.58L1511.88 1028.68L1584.05 1070.35L1584.05 1153.89L1583.87 1153.99L1511.7 1195.66ZM1440.07 1153.48L1511.7 1194.83L1583.33 1153.48L1583.33 1070.77L1511.7 1029.41L1440.07 1070.77L1440.07 1153.48Z" />
					</g>
					<g id="&lt;Group&gt;">
						<path id="&lt;Compound Path&gt;" fill-rule="evenodd" class="shp0" d="M1727.67 1070.96L1727.49 1070.86L1655.32 1029.19L1655.32 945.65L1655.5 945.54L1727.67 903.88L1727.85 903.98L1800.02 945.65L1800.02 1029.19L1799.84 1029.29L1727.67 1070.96ZM1656.04 1028.77L1727.67 1070.13L1799.3 1028.77L1799.3 946.06L1727.67 904.71L1656.04 946.06L1656.04 1028.77Z" />
					</g>
					<g id="&lt;Group&gt;">
						<path id="&lt;Compound Path&gt;" fill-rule="evenodd" class="shp0" d="M1655.68 1113.23L1655.2 1112.95L1582.73 1071.11L1582.73 986.88L1583.21 986.6L1655.68 944.76L1656.16 945.04L1728.63 986.88L1728.63 1071.11L1728.15 1071.39L1655.68 1113.23ZM1584.65 1070L1655.68 1111.01L1726.71 1070L1726.71 987.99L1655.68 946.98L1584.65 987.99L1584.65 1070Z" />
					</g>
					<g id="&lt;Group&gt;">
						<path id="&lt;Compound Path&gt;" fill-rule="evenodd" class="shp0" d="M1439.71 1154.08L1439.53 1153.98L1367.36 1112.31L1367.36 1028.77L1367.54 1028.67L1439.71 987L1439.89 987.11L1512.06 1028.77L1512.06 1112.31L1511.88 1112.42L1439.71 1154.08ZM1368.08 1111.9L1439.71 1153.25L1511.34 1111.9L1511.34 1029.19L1439.71 987.83L1368.08 1029.19L1368.08 1111.9Z" />
					</g>
					<g id="&lt;Group&gt;">
						<path id="&lt;Compound Path&gt;" fill-rule="evenodd" class="shp0" d="M1583.69 1070.96L1583.51 1070.86L1511.34 1029.19L1511.34 945.65L1511.52 945.54L1583.69 903.88L1583.87 903.98L1656.04 945.65L1656.04 1029.19L1655.86 1029.29L1583.69 1070.96ZM1512.06 1028.77L1583.69 1070.13L1655.32 1028.77L1655.32 946.06L1583.69 904.71L1512.06 946.06L1512.06 1028.77Z" />
					</g>
					<g id="&lt;Group&gt;">
						<path id="&lt;Compound Path&gt;" fill-rule="evenodd" class="shp0" d="M1583.69 987.83L1583.51 987.73L1511.34 946.06L1511.34 862.52L1511.52 862.42L1583.69 820.75L1583.87 820.85L1656.04 862.52L1656.04 946.06L1655.86 946.17L1583.69 987.83ZM1512.06 945.65L1583.69 987L1655.32 945.65L1655.32 862.94L1583.69 821.58L1512.06 862.94L1512.06 945.65Z" />
					</g>
					<g id="&lt;Group&gt;">
						<path id="&lt;Compound Path&gt;" fill-rule="evenodd" class="shp0" d="M1439.71 821.6L1439.53 821.5L1367.36 779.83L1367.36 696.29L1367.54 696.18L1439.71 654.52L1439.89 654.62L1512.06 696.29L1512.06 779.83L1511.88 779.93L1439.71 821.6ZM1368.08 779.41L1439.71 820.77L1511.34 779.41L1511.34 696.7L1439.71 655.35L1368.08 696.7L1368.08 779.41Z" />
					</g>
					<g id="&lt;Group&gt;">
						<path id="&lt;Compound Path&gt;" fill-rule="evenodd" class="shp0" d="M1439.71 987.85L1439.53 987.75L1367.36 946.08L1367.36 862.54L1367.54 862.44L1439.71 820.77L1439.89 820.87L1512.06 862.54L1512.06 946.08L1511.88 946.18L1439.71 987.85ZM1368.08 945.67L1439.71 987.02L1511.34 945.67L1511.34 862.96L1439.71 821.6L1368.08 862.96L1368.08 945.67Z" />
					</g>
					<g id="&lt;Group&gt;">
						<path id="&lt;Compound Path&gt;" fill-rule="evenodd" class="shp0" d="M1655.68 863.13L1655.5 863.03L1583.33 821.36L1583.33 737.82L1583.51 737.72L1655.68 696.05L1655.86 696.15L1728.03 737.82L1728.03 821.36L1727.85 821.46L1655.68 863.13ZM1584.05 820.94L1655.68 862.3L1727.31 820.94L1727.31 738.23L1655.68 696.88L1584.05 738.23L1584.05 820.94Z" />
					</g>
					<g id="&lt;Group&gt;">
						<path id="&lt;Compound Path&gt;" fill-rule="evenodd" class="shp0" d="M1583.69 905.4L1583.21 905.12L1510.74 863.28L1510.74 779.05L1511.22 778.77L1583.69 736.93L1584.17 737.21L1656.64 779.05L1656.64 863.28L1656.16 863.56L1583.69 905.4ZM1512.66 862.18L1583.69 903.18L1654.72 862.18L1654.72 780.16L1583.69 739.15L1512.66 780.16L1512.66 862.18Z" />
					</g>
					<g id="&lt;Group&gt;">
						<path id="&lt;Compound Path&gt;" fill-rule="evenodd" class="shp0" d="M1511.7 780.04L1511.52 779.94L1439.35 738.27L1439.35 654.73L1439.53 654.62L1511.7 612.96L1584.05 654.73L1584.05 738.27L1583.87 738.37L1511.7 780.04ZM1440.07 737.85L1511.7 779.21L1583.33 737.85L1583.33 655.14L1511.7 613.79L1440.07 655.14L1440.07 737.85Z" />
					</g>
					<g id="&lt;Group&gt;">
						<path id="&lt;Compound Path&gt;" fill-rule="evenodd" class="shp0" d="M1583.69 655.34L1511.34 613.57L1511.34 530.02L1511.52 529.92L1583.69 488.25L1656.04 530.02L1656.04 613.57L1655.86 613.67L1583.69 655.34ZM1512.06 613.15L1583.69 654.51L1655.32 613.15L1655.32 530.44L1583.69 489.09L1512.06 530.44L1512.06 613.15Z" />
					</g>
					<g id="&lt;Group&gt;">
						<path id="&lt;Compound Path&gt;" fill-rule="evenodd" class="shp0" d="M1511.7 696.91L1511.52 696.81L1439.35 655.14L1439.35 571.6L1439.53 571.5L1511.7 529.83L1584.05 571.6L1584.05 655.14L1583.87 655.25L1511.7 696.91ZM1440.07 654.73L1511.7 696.08L1583.33 654.73L1583.33 572.02L1511.7 530.66L1440.07 572.02L1440.07 654.73Z" />
					</g>
					<g id="&lt;Group&gt;">
						<path id="&lt;Compound Path&gt;" fill-rule="evenodd" class="shp0" d="M1367.72 1029.38L1367.54 1029.28L1295.37 987.61L1295.37 904.07L1295.55 903.97L1367.72 862.3L1367.9 862.4L1440.07 904.07L1440.07 987.61L1439.89 987.72L1367.72 1029.38ZM1296.09 987.2L1367.72 1028.55L1439.35 987.2L1439.35 904.49L1367.72 863.13L1296.09 904.49L1296.09 987.2Z" />
					</g>
					<g id="&lt;Group&gt;">
						<path id="&lt;Compound Path&gt;" fill-rule="evenodd" class="shp0" d="M1367.72 904.73L1367.54 904.62L1295.37 862.96L1295.37 779.41L1295.55 779.31L1367.72 737.64L1367.9 737.75L1440.07 779.41L1440.07 862.96L1439.89 863.06L1367.72 904.73ZM1296.09 862.54L1367.72 903.89L1439.35 862.54L1439.35 779.83L1367.72 738.47L1296.09 779.83L1296.09 862.54Z" />
					</g>
					<g id="&lt;Group&gt;">
						<path id="&lt;Compound Path&gt;" fill-rule="evenodd" class="shp0" d="M215.9 1361.48L215.72 1361.37L143.55 1319.71L143.55 1236.16L143.73 1236.06L215.9 1194.39L216.08 1194.5L288.25 1236.16L288.25 1319.71L288.07 1319.81L215.9 1361.48ZM144.27 1319.29L215.9 1360.64L287.53 1319.29L287.53 1236.58L215.9 1195.22L144.27 1236.58L144.27 1319.29Z" />
					</g>
					<g id="&lt;Group&gt;">
						<path id="&lt;Compound Path&gt;" fill-rule="evenodd" class="shp0" d="M143.91 1361.73L143.43 1361.45L70.96 1319.61L70.96 1235.38L71.44 1235.1L143.91 1193.26L144.39 1193.54L216.86 1235.38L216.86 1319.61L216.38 1319.89L143.91 1361.73ZM72.88 1318.5L143.91 1359.51L214.94 1318.5L214.94 1236.49L143.91 1195.48L72.88 1236.49L72.88 1318.5Z" />
					</g>
					<g id="&lt;Group&gt;">
						<path id="&lt;Compound Path&gt;" fill-rule="evenodd" class="shp0" d="M359.88 1236.33L359.7 1236.23L287.53 1194.56L287.53 1111.02L287.71 1110.92L359.88 1069.25L360.06 1069.35L432.23 1111.02L432.23 1194.56L432.05 1194.67L359.88 1236.33ZM288.25 1194.15L359.88 1235.5L431.51 1194.15L431.51 1111.44L359.88 1070.08L288.25 1111.44L288.25 1194.15Z" />
					</g>
					<g id="&lt;Group&gt;">
						<path id="&lt;Compound Path&gt;" fill-rule="evenodd" class="shp0" d="M287.89 1277.91L287.71 1277.81L215.54 1236.14L215.54 1152.6L215.72 1152.49L287.89 1110.83L288.07 1110.93L360.24 1152.6L360.24 1236.14L360.06 1236.24L287.89 1277.91ZM216.26 1235.72L287.89 1277.08L359.52 1235.72L359.52 1153.01L287.89 1111.66L216.26 1153.01L216.26 1235.72Z" />
					</g>
					<g id="&lt;Group&gt;">
						<path id="&lt;Compound Path&gt;" fill-rule="evenodd" class="shp0" d="M71.92 1320.15L71.44 1319.87L-1.03 1278.03L-1.03 1193.8L-0.55 1193.52L71.92 1151.68L72.4 1151.96L144.87 1193.8L144.87 1278.03L144.39 1278.31L71.92 1320.15ZM0.89 1276.93L71.92 1317.93L142.95 1276.93L142.95 1194.91L71.92 1153.9L0.89 1194.91L0.89 1276.93Z" />
					</g>
					<g id="&lt;Group&gt;">
						<path id="&lt;Compound Path&gt;" fill-rule="evenodd" class="shp0" d="M71.92 1236.33L71.74 1236.23L-0.43 1194.56L-0.43 1111.02L-0.25 1110.92L71.92 1069.25L72.1 1069.35L144.27 1111.02L144.27 1194.56L144.09 1194.67L71.92 1236.33ZM0.29 1194.15L71.92 1235.5L143.55 1194.15L143.55 1111.44L71.92 1070.08L0.29 1111.44L0.29 1194.15Z" />
					</g>
					<g id="&lt;Group&gt;">
						<path id="&lt;Compound Path&gt;" fill-rule="evenodd" class="shp0" d="M215.9 1236.33L215.72 1236.23L143.55 1194.56L143.55 1111.02L143.73 1110.92L215.9 1069.25L216.08 1069.35L288.25 1111.02L288.25 1194.56L288.07 1194.67L215.9 1236.33ZM144.27 1194.15L215.9 1235.5L287.53 1194.15L287.53 1111.44L215.9 1070.08L144.27 1111.44L144.27 1194.15Z" />
					</g>
					<g id="&lt;Group&gt;">
						<path id="&lt;Compound Path&gt;" fill-rule="evenodd" class="shp0" d="M215.9 1153.21L215.72 1153.1L143.55 1111.44L143.55 1027.9L143.73 1027.79L215.9 986.12L216.08 986.23L288.25 1027.9L288.25 1111.44L288.07 1111.54L215.9 1153.21ZM144.27 1111.02L215.9 1152.38L287.53 1111.02L287.53 1028.31L215.9 986.96L144.27 1028.31L144.27 1111.02Z" />
					</g>
					<g id="&lt;Group&gt;">
						<path id="&lt;Compound Path&gt;" fill-rule="evenodd" class="shp0" d="M143.91 1152.77L143.73 1152.67L71.56 1111L71.56 1027.46L71.74 1027.36L143.91 985.69L144.09 985.79L216.26 1027.46L216.26 1111L216.08 1111.1L143.91 1152.77ZM72.28 1110.58L143.91 1151.94L215.54 1110.58L215.54 1027.87L143.91 986.52L72.28 1027.87L72.28 1110.58Z" />
					</g>
					<g id="&lt;Group&gt;">
						<path id="&lt;Compound Path&gt;" fill-rule="evenodd" class="shp0" d="M71.92 1153.23L71.74 1153.12L-0.43 1111.45L-0.43 1027.91L-0.25 1027.81L71.92 986.14L72.1 986.25L144.27 1027.91L144.27 1111.45L144.09 1111.56L71.92 1153.23ZM0.29 1111.04L71.92 1152.39L143.55 1111.04L143.55 1028.33L71.92 986.97L0.29 1028.33L0.29 1111.04Z" />
					</g>
					<g id="&lt;Group&gt;">
						<path id="&lt;Compound Path&gt;" fill-rule="evenodd" class="shp0" d="M287.89 1028.5L287.71 1028.4L215.54 986.73L215.54 903.19L215.72 903.09L287.89 861.42L288.07 861.53L360.24 903.19L360.24 986.73L360.06 986.84L287.89 1028.5ZM216.26 986.32L287.89 1027.67L359.52 986.32L359.52 903.61L287.89 862.25L216.26 903.61L216.26 986.32Z" />
					</g>
					<g id="&lt;Group&gt;">
						<path id="&lt;Compound Path&gt;" fill-rule="evenodd" class="shp0" d="M215.9 1070.77L215.42 1070.5L142.95 1028.66L142.95 944.42L143.43 944.15L215.9 902.31L216.38 902.58L288.85 944.42L288.85 1028.66L288.37 1028.93L215.9 1070.77ZM144.87 1027.55L215.9 1068.56L286.93 1027.55L286.93 945.53L215.9 904.52L144.87 945.53L144.87 1027.55Z" />
					</g>
					<g id="&lt;Group&gt;">
						<path id="&lt;Compound Path&gt;" fill-rule="evenodd" class="shp0" d="M503.86 1237.04L503.38 1236.77L430.91 1194.93L430.91 1110.69L431.39 1110.42L503.86 1068.58L504.34 1068.85L576.8 1110.69L576.8 1194.93L576.33 1195.2L503.86 1237.04ZM432.83 1193.82L503.86 1234.83L574.89 1193.82L574.89 1111.8L503.86 1070.79L432.83 1111.8L432.83 1193.82Z" />
					</g>
					<g id="&lt;Group&gt;">
						<path id="&lt;Compound Path&gt;" fill-rule="evenodd" class="shp0" d="M431.87 1194.77L431.69 1194.67L359.52 1153L359.52 1069.46L359.7 1069.36L431.87 1027.69L432.05 1027.79L504.22 1069.46L504.22 1153L504.04 1153.11L431.87 1194.77ZM360.24 1152.59L431.87 1193.94L503.5 1152.59L503.5 1069.88L431.87 1028.52L360.24 1069.88L360.24 1152.59Z" />
					</g>
					<g id="&lt;Group&gt;">
						<path id="&lt;Compound Path&gt;" fill-rule="evenodd" class="shp0" d="M431.87 1112.34L431.39 1112.06L358.92 1070.22L358.92 985.99L359.4 985.71L431.87 943.87L432.35 944.15L504.82 985.99L504.82 1070.22L504.34 1070.5L431.87 1112.34ZM360.84 1069.12L431.87 1110.12L502.9 1069.12L502.9 987.1L431.87 946.09L360.84 987.1L360.84 1069.12Z" />
					</g>
					<g id="&lt;Group&gt;">
						<path id="&lt;Compound Path&gt;" fill-rule="evenodd" class="shp0" d="M359.88 986.96L359.7 986.85L287.53 945.19L287.53 861.64L287.71 861.54L359.88 819.87L360.06 819.98L432.23 861.64L432.23 945.19L432.05 945.29L359.88 986.96ZM288.25 944.77L359.88 986.12L431.51 944.77L431.51 862.06L359.88 820.7L288.25 862.06L288.25 944.77Z" />
					</g>
					<g id="&lt;Group&gt;">
						<path id="&lt;Compound Path&gt;" fill-rule="evenodd" class="shp0" d="M431.87 1028.54L431.69 1028.44L359.52 986.77L359.52 903.23L359.7 903.12L431.87 861.46L432.05 861.56L504.22 903.23L504.22 986.77L504.04 986.87L431.87 1028.54ZM360.24 986.35L431.87 1027.71L503.5 986.35L503.5 903.64L431.87 862.29L360.24 903.64L360.24 986.35Z" />
					</g>
					<g id="&lt;Group&gt;">
						<path id="&lt;Compound Path&gt;" fill-rule="evenodd" class="shp0" d="M1583.69 1486.59L1583.51 1486.48L1511.34 1444.82L1511.34 1361.27L1511.52 1361.17L1583.69 1319.5L1583.87 1319.61L1656.03 1361.27L1656.03 1444.82L1655.85 1444.92L1583.69 1486.59ZM1512.06 1444.4L1583.69 1485.75L1655.31 1444.4L1655.31 1361.69L1583.69 1320.33L1512.06 1361.69L1512.06 1444.4Z" />
					</g>
					<g id="&lt;Group&gt;">
						<path id="&lt;Compound Path&gt;" fill-rule="evenodd" class="shp0" d="M1511.7 1528.16L1511.52 1528.06L1439.35 1486.39L1439.35 1402.85L1439.53 1402.75L1511.7 1361.08L1511.88 1361.18L1584.05 1402.85L1584.05 1486.39L1583.87 1486.5L1511.7 1528.16ZM1440.07 1485.98L1511.7 1527.33L1583.33 1485.98L1583.33 1403.27L1511.7 1361.91L1440.07 1403.27L1440.07 1485.98Z" />
					</g>
					<g id="&lt;Group&gt;">
						<path id="&lt;Compound Path&gt;" fill-rule="evenodd" class="shp0" d="M1295.73 1486.59L1295.55 1486.48L1223.38 1444.82L1223.38 1361.27L1223.56 1361.17L1295.73 1319.5L1295.91 1319.61L1368.08 1361.27L1368.08 1444.82L1367.9 1444.92L1295.73 1486.59ZM1224.1 1444.4L1295.73 1485.75L1367.36 1444.4L1367.36 1361.69L1295.73 1320.33L1224.1 1361.69L1224.1 1444.4Z" />
					</g>
					<g id="&lt;Group&gt;">
						<path id="&lt;Compound Path&gt;" fill-rule="evenodd" class="shp0" d="M1439.71 1486.59L1439.53 1486.48L1367.36 1444.82L1367.36 1361.27L1367.54 1361.17L1439.71 1319.5L1439.89 1319.61L1512.06 1361.27L1512.06 1444.82L1511.88 1444.92L1439.71 1486.59ZM1368.08 1444.4L1439.71 1485.75L1511.34 1444.4L1511.34 1361.69L1439.71 1320.33L1368.08 1361.69L1368.08 1444.4Z" />
					</g>
					<g id="&lt;Group&gt;">
						<path id="&lt;Compound Path&gt;" fill-rule="evenodd" class="shp0" d="M1439.71 1403.46L1439.53 1403.36L1367.36 1361.69L1367.36 1278.15L1367.54 1278.04L1439.71 1236.38L1439.89 1236.48L1512.06 1278.15L1512.06 1361.69L1511.88 1361.79L1439.71 1403.46ZM1368.08 1361.27L1439.71 1402.63L1511.34 1361.27L1511.34 1278.56L1439.71 1237.21L1368.08 1278.56L1368.08 1361.27Z" />
					</g>
					<g id="&lt;Group&gt;">
						<path id="&lt;Compound Path&gt;" fill-rule="evenodd" class="shp0" d="M1367.72 1403.91L1367.54 1403.81L1295.37 1362.14L1295.37 1278.6L1295.55 1278.5L1367.72 1236.83L1367.9 1236.93L1440.07 1278.6L1440.07 1362.14L1439.89 1362.25L1367.72 1403.91ZM1296.09 1361.73L1367.72 1403.08L1439.35 1361.73L1439.35 1279.02L1367.72 1237.66L1296.09 1279.02L1296.09 1361.73Z" />
					</g>
					<g id="&lt;Group&gt;">
						<path id="&lt;Compound Path&gt;" fill-rule="evenodd" class="shp0" d="M1295.73 1403.48L1295.55 1403.37L1223.38 1361.71L1223.38 1278.17L1223.56 1278.06L1295.73 1236.4L1295.91 1236.5L1368.08 1278.17L1368.08 1361.71L1367.9 1361.81L1295.73 1403.48ZM1224.1 1361.29L1295.73 1402.65L1367.36 1361.29L1367.36 1278.58L1295.73 1237.23L1224.1 1278.58L1224.1 1361.29Z" />
					</g>
					<g id="&lt;Group&gt;">
						<path id="&lt;Compound Path&gt;" fill-rule="evenodd" class="shp0" d="M1511.7 1278.76L1511.52 1278.65L1439.35 1236.99L1439.35 1153.45L1439.53 1153.34L1511.7 1111.68L1511.88 1111.78L1584.05 1153.45L1584.05 1236.99L1583.87 1237.09L1511.7 1278.76ZM1440.07 1236.57L1511.7 1277.93L1583.33 1236.57L1583.33 1153.86L1511.7 1112.51L1440.07 1153.86L1440.07 1236.57Z" />
					</g>
					<g id="&lt;Group&gt;">
						<path id="&lt;Compound Path&gt;" fill-rule="evenodd" class="shp0" d="M1439.71 1320.33L1439.53 1320.23L1367.36 1278.56L1367.36 1195.02L1367.54 1194.92L1439.71 1153.25L1439.89 1153.36L1512.06 1195.02L1512.06 1278.56L1511.88 1278.67L1439.71 1320.33ZM1368.08 1278.15L1439.71 1319.5L1511.34 1278.15L1511.34 1195.44L1439.71 1154.08L1368.08 1195.44L1368.08 1278.15Z" />
					</g>
					<g id="&lt;Group&gt;">
						<path id="&lt;Compound Path&gt;" fill-rule="evenodd" class="shp0" d="M1583.69 1320.32L1583.51 1320.22L1511.34 1278.55L1511.34 1195.01L1511.52 1194.91L1583.69 1153.24L1583.87 1153.35L1656.03 1195.01L1656.03 1278.55L1655.85 1278.66L1583.69 1320.32ZM1512.06 1278.14L1583.69 1319.49L1655.31 1278.14L1655.31 1195.43L1583.69 1154.07L1512.06 1195.43L1512.06 1278.14Z" />
					</g>
					<g id="&lt;Group&gt;">
						<path id="&lt;Compound Path&gt;" fill-rule="evenodd" class="shp0" d="M1799.66 863.87L1799.18 863.6L1726.71 821.76L1726.71 737.52L1727.19 737.25L1799.66 695.41L1800.14 695.68L1872.6 737.52L1872.6 821.76L1872.12 822.03L1799.66 863.87ZM1728.63 820.65L1799.66 861.66L1870.69 820.65L1870.69 738.63L1799.66 697.62L1728.63 738.63L1728.63 820.65Z" />
					</g>
					<g id="&lt;Group&gt;">
						<path id="&lt;Compound Path&gt;" fill-rule="evenodd" class="shp0" d="M1799.65 1195.68L1799.47 1195.58L1727.3 1153.91L1727.3 1070.37L1727.48 1070.27L1799.65 1028.6L1799.83 1028.7L1872 1070.37L1872 1153.91L1871.82 1154.01L1799.65 1195.68ZM1728.02 1153.49L1799.65 1194.85L1871.28 1153.49L1871.28 1070.79L1799.65 1029.43L1728.02 1070.79L1728.02 1153.49Z" />
					</g>
					<g id="&lt;Group&gt;">
						<path id="&lt;Compound Path&gt;" fill-rule="evenodd" class="shp0" d="M1799.65 946.28L1799.47 946.17L1727.3 904.51L1727.3 820.96L1727.48 820.86L1799.65 779.19L1799.83 779.3L1872 820.96L1872 904.51L1871.82 904.61L1799.65 946.28ZM1728.02 904.09L1799.65 945.44L1871.28 904.09L1871.28 821.38L1799.65 780.02L1728.02 821.38L1728.02 904.09Z" />
					</g>
					<g id="&lt;Group&gt;">
						<path id="&lt;Compound Path&gt;" fill-rule="evenodd" class="shp0" d="M935.79 1195.66L935.61 1195.56L863.44 1153.89L863.44 1070.35L863.62 1070.25L935.79 1028.58L935.97 1028.68L1008.14 1070.35L1008.14 1153.89L1007.96 1154L935.79 1195.66ZM864.16 1153.48L935.79 1194.83L1007.42 1153.48L1007.42 1070.77L935.79 1029.41L864.16 1070.77L864.16 1153.48Z" />
					</g>
					<g id="&lt;Group&gt;">
						<path id="&lt;Compound Path&gt;" fill-rule="evenodd" class="shp0" d="M647.83 945.36L647.65 945.26L575.48 903.59L575.48 820.05L575.66 819.95L647.83 778.28L648.01 778.38L720.18 820.05L720.18 903.59L720 903.7L647.83 945.36ZM576.2 903.18L647.83 944.53L719.46 903.18L719.46 820.47L647.83 779.11L576.2 820.47L576.2 903.18Z" />
					</g>
					<g id="&lt;Group&gt;">
						<path id="&lt;Compound Path&gt;" fill-rule="evenodd" class="shp0" d="M575.84 986.94L575.66 986.84L503.5 945.17L503.5 861.63L503.68 861.52L575.84 819.86L576.02 819.96L648.19 861.63L648.19 945.17L648.01 945.27L575.84 986.94ZM504.22 944.75L575.84 986.11L647.47 944.75L647.47 862.04L575.84 820.69L504.22 862.04L504.22 944.75Z" />
					</g>
				</g>
				<g id="&lt;Group&gt;">
					<path id="&lt;Path&gt;" class="shp1" d="M226.57 823.33C226.57 826.31 224.16 828.72 221.18 828.72C218.21 828.72 215.8 826.31 215.8 823.33C215.8 820.36 218.21 817.94 221.18 817.94C224.16 817.94 226.57 820.36 226.57 823.33Z" />
					<path id="&lt;Path&gt;" class="shp1" d="M1139.26 623.24C1139.26 626.22 1136.85 628.63 1133.87 628.63C1130.9 628.63 1128.48 626.22 1128.48 623.24C1128.48 620.26 1130.9 617.85 1133.87 617.85C1136.85 617.85 1139.26 620.26 1139.26 623.24Z" />
					<path id="&lt;Path&gt;" class="shp1" d="M1661.07 696.46C1661.07 699.44 1658.65 701.85 1655.68 701.85C1652.7 701.85 1650.29 699.44 1650.29 696.46C1650.29 693.49 1652.7 691.07 1655.68 691.07C1658.65 691.07 1661.07 693.49 1661.07 696.46Z" />
					<path id="&lt;Path&gt;" class="shp1" d="M1301.12 1070.76C1301.12 1073.74 1298.71 1076.15 1295.73 1076.15C1292.76 1076.15 1290.35 1073.74 1290.35 1070.76C1290.35 1067.78 1292.76 1065.37 1295.73 1065.37C1298.71 1065.37 1301.12 1067.78 1301.12 1070.76Z" />
					<path id="&lt;Path&gt;" class="shp1" d="M869.09 1027.67C869.09 1030.64 866.68 1033.05 863.7 1033.05C860.73 1033.05 858.31 1030.64 858.31 1027.67C858.31 1024.69 860.73 1022.28 863.7 1022.28C866.68 1022.28 869.09 1024.69 869.09 1027.67Z" />
					<path id="&lt;Path&gt;" class="shp1" d="M581.23 779.15C581.23 782.13 578.82 784.54 575.85 784.54C572.87 784.54 570.46 782.13 570.46 779.15C570.46 776.17 572.87 773.76 575.85 773.76C578.82 773.76 581.23 776.17 581.23 779.15Z" />
					<path id="&lt;Path&gt;" class="shp1" d="M5.32 1028.13C5.32 1031.11 2.91 1033.52 -0.07 1033.52C-3.04 1033.52 -5.46 1031.11 -5.46 1028.13C-5.46 1025.16 -3.04 1022.74 -0.07 1022.74C2.91 1022.74 5.32 1025.16 5.32 1028.13Z" />
					<path id="&lt;Path&gt;" class="shp1" d="M437.26 1277.39C437.26 1280.36 434.84 1282.78 431.87 1282.78C428.89 1282.78 426.48 1280.36 426.48 1277.39C426.48 1274.41 428.89 1272 431.87 1272C434.84 1272 437.26 1274.41 437.26 1277.39Z" />
					<path id="&lt;Path&gt;" class="shp1" d="M221.29 1152.79C221.29 1155.77 218.88 1158.18 215.9 1158.18C212.92 1158.18 210.51 1155.77 210.51 1152.79C210.51 1149.82 212.92 1147.4 215.9 1147.4C218.88 1147.4 221.29 1149.82 221.29 1152.79Z" />
					<path id="&lt;Path&gt;" class="shp1" d="M1373.11 862.72C1373.11 865.69 1370.7 868.1 1367.72 868.1C1364.75 868.1 1362.33 865.69 1362.33 862.72C1362.33 859.74 1364.75 857.33 1367.72 857.33C1370.7 857.33 1373.11 859.74 1373.11 862.72Z" />
				</g>
			</g>
		</g>
	</g>
</svg>