<svg width="80" height="37" viewBox="0 0 80 37" fill="none" xmlns="http://www.w3.org/2000/svg">
<mask id="mask0_270_8072" style="mask-type:alpha" maskUnits="userSpaceOnUse" x="0" y="0" width="80" height="37">
<rect y="0.804688" width="80" height="36" rx="18" fill="url(#paint0_linear_270_8072)"/>
</mask>
<g mask="url(#mask0_270_8072)">
<circle cx="54" cy="17.8047" r="9" fill="url(#paint1_linear_270_8072)"/>
<path d="M-1.59985 22.6031V28.6031L1.80015 44.4031C7.86681 46.6031 20.4401 51.1231 22.2001 51.6031C24.4001 52.2031 43.8001 55.4031 44.8001 55.8031C45.6001 56.1231 73.0001 46.0698 86.6001 41.0031L82.2001 24.2031L64.6001 21.4031L47.0001 19.8031L40.4001 20.6031L30.2001 17.2031L-1.59985 22.6031Z" fill="url(#paint2_linear_270_8072)"/>
<path d="M16.6 27.2039L9.19995 38.2039L46.3999 39.2039L37.7999 30.2039H36.7999L32.5999 23.8039H30.6L25.2 16.0039L19.2 27.2039H16.6Z" fill="url(#paint3_linear_270_8072)"/>
<path d="M41.8001 26.4031L34.4001 37.4031L71.6001 38.4031L63.0001 29.4031H62.0001L57.8001 23.0031H55.8001L50.4001 15.2031L44.4001 26.4031H41.8001Z" fill="url(#paint4_linear_270_8072)"/>
<path d="M59.1505 29.1066L50 42.7617L96 44.0031L85.3656 32.8307H84.129L78.9355 24.8859H76.4624L69.7849 15.2031L62.3656 29.1066H59.1505Z" fill="url(#paint5_linear_270_8072)"/>
<path d="M-2.04941 27.1066L-11.2 40.7617L34.8 42.0031L24.1656 30.8307H22.9291L17.7355 22.8859H15.2624L8.585 13.2031L1.16564 27.1066H-2.04941Z" fill="url(#paint6_linear_270_8072)"/>
<path d="M14.5113 29.0618C14.6251 28.5362 15.3749 28.5362 15.4887 29.0618L17.4669 38.1989C17.5344 38.5104 17.297 38.8047 16.9782 38.8047H13.0218C12.703 38.8047 12.4656 38.5104 12.5331 38.1989L14.5113 29.0618Z" fill="url(#paint7_linear_270_8072)"/>
<path d="M11.5113 31.0618C11.6251 30.5362 12.3749 30.5362 12.4887 31.0618L14.4669 40.1989C14.5344 40.5104 14.297 40.8047 13.9782 40.8047H10.0218C9.70301 40.8047 9.46563 40.5104 9.53308 40.1989L11.5113 31.0618Z" fill="url(#paint8_linear_270_8072)"/>
<path d="M18.5113 31.0618C18.6251 30.5362 19.3749 30.5362 19.4887 31.0618L21.4669 40.1989C21.5344 40.5104 21.297 40.8047 20.9782 40.8047H17.0218C16.703 40.8047 16.4656 40.5104 16.5331 40.1989L18.5113 31.0618Z" fill="url(#paint9_linear_270_8072)"/>
<path d="M21.5113 30.0618C21.6251 29.5362 22.3749 29.5362 22.4887 30.0618L24.4669 39.1989C24.5344 39.5104 24.297 39.8047 23.9782 39.8047H20.0218C19.703 39.8047 19.4656 39.5104 19.5331 39.1989L21.5113 30.0618Z" fill="url(#paint10_linear_270_8072)"/>
<path d="M24.5113 30.0618C24.6251 29.5362 25.3749 29.5362 25.4887 30.0618L27.4669 39.1989C27.5344 39.5104 27.297 39.8047 26.9782 39.8047H23.0218C22.703 39.8047 22.4656 39.5104 22.5331 39.1989L24.5113 30.0618Z" fill="url(#paint11_linear_270_8072)"/>
<path d="M28.0152 30.7239C28.1424 30.2205 28.8576 30.2205 28.9848 30.7239L31.3739 40.1822C31.4536 40.4981 31.2149 40.8047 30.8891 40.8047H26.1109C25.7851 40.8047 25.5464 40.4981 25.6261 40.1822L28.0152 30.7239Z" fill="url(#paint12_linear_270_8072)"/>
<path d="M29.5113 28.0618C29.6251 27.5362 30.3749 27.5362 30.4887 28.0618L32.4669 37.1989C32.5344 37.5104 32.297 37.8047 31.9782 37.8047H28.0218C27.703 37.8047 27.4656 37.5104 27.5331 37.1989L29.5113 28.0618Z" fill="url(#paint13_linear_270_8072)"/>
<path d="M34.5113 30.0618C34.6251 29.5362 35.3749 29.5362 35.4887 30.0618L37.4669 39.1989C37.5344 39.5104 37.297 39.8047 36.9782 39.8047H33.0218C32.703 39.8047 32.4656 39.5104 32.5331 39.1989L34.5113 30.0618Z" fill="url(#paint14_linear_270_8072)"/>
<path d="M37.5113 31.0618C37.6251 30.5362 38.3749 30.5362 38.4887 31.0618L40.4669 40.1989C40.5344 40.5104 40.297 40.8047 39.9782 40.8047H36.0218C35.703 40.8047 35.4656 40.5104 35.5331 40.1989L37.5113 31.0618Z" fill="url(#paint15_linear_270_8072)"/>
<path d="M42.5113 30.0618C42.6251 29.5362 43.3749 29.5362 43.4887 30.0618L45.4669 39.1989C45.5344 39.5104 45.297 39.8047 44.9782 39.8047H41.0218C40.703 39.8047 40.4656 39.5104 40.5331 39.1989L42.5113 30.0618Z" fill="url(#paint16_linear_270_8072)"/>
<path d="M44.0152 30.7239C44.1424 30.2205 44.8576 30.2205 44.9848 30.7239L47.3739 40.1822C47.4536 40.4981 47.2149 40.8047 46.8891 40.8047H42.1109C41.7851 40.8047 41.5464 40.4981 41.6261 40.1822L44.0152 30.7239Z" fill="url(#paint17_linear_270_8072)"/>
<path d="M46.5113 32.0618C46.6251 31.5362 47.3749 31.5362 47.4887 32.0618L49.4669 41.1989C49.5344 41.5104 49.297 41.8047 48.9782 41.8047H45.0218C44.703 41.8047 44.4656 41.5104 44.5331 41.1989L46.5113 32.0618Z" fill="url(#paint18_linear_270_8072)"/>
<path d="M49.5113 30.0618C49.6251 29.5362 50.3749 29.5362 50.4887 30.0618L52.4669 39.1989C52.5344 39.5104 52.297 39.8047 51.9782 39.8047H48.0218C47.703 39.8047 47.4656 39.5104 47.5331 39.1989L49.5113 30.0618Z" fill="url(#paint19_linear_270_8072)"/>
<path d="M52.5113 31.0618C52.6251 30.5362 53.3749 30.5362 53.4887 31.0618L55.4669 40.1989C55.5344 40.5104 55.297 40.8047 54.9782 40.8047H51.0218C50.703 40.8047 50.4656 40.5104 50.5331 40.1989L52.5113 31.0618Z" fill="url(#paint20_linear_270_8072)"/>
<path d="M56.5113 29.0618C56.6251 28.5362 57.3749 28.5362 57.4887 29.0618L59.4669 38.1989C59.5344 38.5104 59.297 38.8047 58.9782 38.8047H55.0218C54.703 38.8047 54.4656 38.5104 54.5331 38.1989L56.5113 29.0618Z" fill="url(#paint21_linear_270_8072)"/>
<path d="M59.0152 30.7239C59.1424 30.2205 59.8576 30.2205 59.9848 30.7239L62.3739 40.1822C62.4536 40.4981 62.2149 40.8047 61.8891 40.8047H57.1109C56.7851 40.8047 56.5464 40.4981 56.6261 40.1822L59.0152 30.7239Z" fill="url(#paint22_linear_270_8072)"/>
<path d="M62.5113 29.0618C62.6251 28.5362 63.3749 28.5362 63.4887 29.0618L65.4669 38.1989C65.5344 38.5104 65.297 38.8047 64.9782 38.8047H61.0218C60.703 38.8047 60.4656 38.5104 60.5331 38.1989L62.5113 29.0618Z" fill="url(#paint23_linear_270_8072)"/>
<path d="M66.5113 30.0618C66.6251 29.5362 67.3749 29.5362 67.4887 30.0618L69.4669 39.1989C69.5344 39.5104 69.297 39.8047 68.9782 39.8047H65.0218C64.703 39.8047 64.4656 39.5104 64.5331 39.1989L66.5113 30.0618Z" fill="url(#paint24_linear_270_8072)"/>
<path d="M69.5113 27.0618C69.6251 26.5362 70.3749 26.5362 70.4887 27.0618L72.4669 36.1989C72.5344 36.5104 72.297 36.8047 71.9782 36.8047H68.0218C67.703 36.8047 67.4656 36.5104 67.5331 36.1989L69.5113 27.0618Z" fill="url(#paint25_linear_270_8072)"/>
<path d="M72.5113 28.0618C72.6251 27.5362 73.3749 27.5362 73.4887 28.0618L75.4669 37.1989C75.5344 37.5104 75.297 37.8047 74.9782 37.8047H71.0218C70.703 37.8047 70.4656 37.5104 70.5331 37.1989L72.5113 28.0618Z" fill="url(#paint26_linear_270_8072)"/>
<path d="M9.51132 30.0618C9.62512 29.5362 10.3749 29.5362 10.4887 30.0618L12.4669 39.1989C12.5344 39.5104 12.297 39.8047 11.9782 39.8047H8.02176C7.70301 39.8047 7.46563 39.5104 7.53308 39.1989L9.51132 30.0618Z" fill="url(#paint27_linear_270_8072)"/>
<path d="M6.51132 27.0618C6.62512 26.5362 7.37488 26.5362 7.48868 27.0618L9.46692 36.1989C9.53437 36.5104 9.29699 36.8047 8.97824 36.8047H5.02176C4.70301 36.8047 4.46563 36.5104 4.53308 36.1989L6.51132 27.0618Z" fill="url(#paint28_linear_270_8072)"/>
</g>
<circle cx="56.5" cy="7.30469" r="0.5" fill="url(#paint29_linear_270_8072)"/>
<circle cx="38.5" cy="18.3047" r="0.5" fill="url(#paint30_linear_270_8072)"/>
<circle cx="73.5" cy="11.3047" r="0.5" fill="url(#paint31_linear_270_8072)"/>
<circle cx="22.5" cy="14.3047" r="0.5" fill="url(#paint32_linear_270_8072)"/>
<circle cx="27" cy="7.80469" r="1" fill="url(#paint33_linear_270_8072)"/>
<circle cx="19.5" cy="8.30469" r="0.5" fill="url(#paint34_linear_270_8072)"/>
<circle cx="13.5" cy="16.3047" r="0.5" fill="url(#paint35_linear_270_8072)"/>
<circle cx="5.5" cy="10.3047" r="0.5" fill="url(#paint36_linear_270_8072)"/>
<circle cx="41.5" cy="11.3047" r="0.5" fill="url(#paint37_linear_270_8072)"/>
<circle cx="65" cy="5.80469" r="1" fill="url(#paint38_linear_270_8072)"/>
<defs>
<linearGradient id="paint0_linear_270_8072" x1="40" y1="0.804687" x2="40" y2="36.8047" gradientUnits="userSpaceOnUse">
<stop stop-color="#ABFAFF"/>
<stop offset="1" stop-color="#D5FFAB"/>
</linearGradient>
<linearGradient id="paint1_linear_270_8072" x1="54" y1="6.87612" x2="54" y2="26.8047" gradientUnits="userSpaceOnUse">
<stop offset="0.261829" stop-color="#A5C5EB"/>
<stop offset="0.699362" stop-color="#51EAFF" stop-opacity="0"/>
</linearGradient>
<linearGradient id="paint2_linear_270_8072" x1="42.5001" y1="17.2031" x2="42.5001" y2="55.8106" gradientUnits="userSpaceOnUse">
<stop stop-color="#6A86EB"/>
<stop offset="0.553516" stop-color="#010203"/>
</linearGradient>
<linearGradient id="paint3_linear_270_8072" x1="27.7999" y1="16.0039" x2="27.7999" y2="39.2039" gradientUnits="userSpaceOnUse">
<stop offset="0.290234" stop-color="#6783CA"/>
<stop offset="1" stop-color="#271B59"/>
</linearGradient>
<linearGradient id="paint4_linear_270_8072" x1="53.0001" y1="15.2031" x2="53.0001" y2="38.4031" gradientUnits="userSpaceOnUse">
<stop offset="0.290234" stop-color="#6783CA"/>
<stop offset="1" stop-color="#271B59"/>
</linearGradient>
<linearGradient id="paint5_linear_270_8072" x1="73" y1="15.2031" x2="73" y2="44.0031" gradientUnits="userSpaceOnUse">
<stop offset="0.290234" stop-color="#6783CA"/>
<stop offset="1" stop-color="#271B59"/>
</linearGradient>
<linearGradient id="paint6_linear_270_8072" x1="11.8" y1="13.2031" x2="11.8" y2="42.0031" gradientUnits="userSpaceOnUse">
<stop offset="0.290234" stop-color="#6783CA"/>
<stop offset="1" stop-color="#271B59"/>
</linearGradient>
<linearGradient id="paint7_linear_270_8072" x1="15" y1="26.8047" x2="15" y2="42.8047" gradientUnits="userSpaceOnUse">
<stop stop-color="#111F51"/>
<stop offset="1" stop-color="#83459F" stop-opacity="0"/>
</linearGradient>
<linearGradient id="paint8_linear_270_8072" x1="12" y1="28.8047" x2="12" y2="44.8047" gradientUnits="userSpaceOnUse">
<stop stop-color="#111F51"/>
<stop offset="1" stop-color="#83459F" stop-opacity="0"/>
</linearGradient>
<linearGradient id="paint9_linear_270_8072" x1="19" y1="28.8047" x2="19" y2="44.8047" gradientUnits="userSpaceOnUse">
<stop stop-color="#111F51"/>
<stop offset="1" stop-color="#83459F" stop-opacity="0"/>
</linearGradient>
<linearGradient id="paint10_linear_270_8072" x1="22" y1="27.8047" x2="22" y2="43.8047" gradientUnits="userSpaceOnUse">
<stop stop-color="#111F51"/>
<stop offset="1" stop-color="#83459F" stop-opacity="0"/>
</linearGradient>
<linearGradient id="paint11_linear_270_8072" x1="25" y1="27.8047" x2="25" y2="43.8047" gradientUnits="userSpaceOnUse">
<stop stop-color="#111F51"/>
<stop offset="1" stop-color="#83459F" stop-opacity="0"/>
</linearGradient>
<linearGradient id="paint12_linear_270_8072" x1="28.5" y1="28.8047" x2="28.5" y2="44.8047" gradientUnits="userSpaceOnUse">
<stop stop-color="#111F51"/>
<stop offset="1" stop-color="#83459F" stop-opacity="0"/>
</linearGradient>
<linearGradient id="paint13_linear_270_8072" x1="30" y1="25.8047" x2="30" y2="41.8047" gradientUnits="userSpaceOnUse">
<stop stop-color="#111F51"/>
<stop offset="1" stop-color="#83459F" stop-opacity="0"/>
</linearGradient>
<linearGradient id="paint14_linear_270_8072" x1="35" y1="27.8047" x2="35" y2="43.8047" gradientUnits="userSpaceOnUse">
<stop stop-color="#111F51"/>
<stop offset="1" stop-color="#83459F" stop-opacity="0"/>
</linearGradient>
<linearGradient id="paint15_linear_270_8072" x1="38" y1="28.8047" x2="38" y2="44.8047" gradientUnits="userSpaceOnUse">
<stop stop-color="#111F51"/>
<stop offset="1" stop-color="#83459F" stop-opacity="0"/>
</linearGradient>
<linearGradient id="paint16_linear_270_8072" x1="43" y1="27.8047" x2="43" y2="43.8047" gradientUnits="userSpaceOnUse">
<stop stop-color="#111F51"/>
<stop offset="1" stop-color="#83459F" stop-opacity="0"/>
</linearGradient>
<linearGradient id="paint17_linear_270_8072" x1="44.5" y1="28.8047" x2="44.5" y2="44.8047" gradientUnits="userSpaceOnUse">
<stop stop-color="#111F51"/>
<stop offset="1" stop-color="#83459F" stop-opacity="0"/>
</linearGradient>
<linearGradient id="paint18_linear_270_8072" x1="47" y1="29.8047" x2="47" y2="45.8047" gradientUnits="userSpaceOnUse">
<stop stop-color="#111F51"/>
<stop offset="1" stop-color="#83459F" stop-opacity="0"/>
</linearGradient>
<linearGradient id="paint19_linear_270_8072" x1="50" y1="27.8047" x2="50" y2="43.8047" gradientUnits="userSpaceOnUse">
<stop stop-color="#111F51"/>
<stop offset="1" stop-color="#83459F" stop-opacity="0"/>
</linearGradient>
<linearGradient id="paint20_linear_270_8072" x1="53" y1="28.8047" x2="53" y2="44.8047" gradientUnits="userSpaceOnUse">
<stop stop-color="#111F51"/>
<stop offset="1" stop-color="#83459F" stop-opacity="0"/>
</linearGradient>
<linearGradient id="paint21_linear_270_8072" x1="57" y1="26.8047" x2="57" y2="42.8047" gradientUnits="userSpaceOnUse">
<stop stop-color="#111F51"/>
<stop offset="1" stop-color="#83459F" stop-opacity="0"/>
</linearGradient>
<linearGradient id="paint22_linear_270_8072" x1="59.5" y1="28.8047" x2="59.5" y2="44.8047" gradientUnits="userSpaceOnUse">
<stop stop-color="#111F51"/>
<stop offset="1" stop-color="#83459F" stop-opacity="0"/>
</linearGradient>
<linearGradient id="paint23_linear_270_8072" x1="63" y1="26.8047" x2="63" y2="42.8047" gradientUnits="userSpaceOnUse">
<stop stop-color="#111F51"/>
<stop offset="1" stop-color="#83459F" stop-opacity="0"/>
</linearGradient>
<linearGradient id="paint24_linear_270_8072" x1="67" y1="27.8047" x2="67" y2="43.8047" gradientUnits="userSpaceOnUse">
<stop stop-color="#111F51"/>
<stop offset="1" stop-color="#83459F" stop-opacity="0"/>
</linearGradient>
<linearGradient id="paint25_linear_270_8072" x1="70" y1="24.8047" x2="70" y2="40.8047" gradientUnits="userSpaceOnUse">
<stop stop-color="#111F51"/>
<stop offset="1" stop-color="#83459F" stop-opacity="0"/>
</linearGradient>
<linearGradient id="paint26_linear_270_8072" x1="73" y1="25.8047" x2="73" y2="41.8047" gradientUnits="userSpaceOnUse">
<stop stop-color="#111F51"/>
<stop offset="1" stop-color="#83459F" stop-opacity="0"/>
</linearGradient>
<linearGradient id="paint27_linear_270_8072" x1="10" y1="27.8047" x2="10" y2="43.8047" gradientUnits="userSpaceOnUse">
<stop stop-color="#111F51"/>
<stop offset="1" stop-color="#83459F" stop-opacity="0"/>
</linearGradient>
<linearGradient id="paint28_linear_270_8072" x1="7" y1="24.8047" x2="7" y2="40.8047" gradientUnits="userSpaceOnUse">
<stop stop-color="#111F51"/>
<stop offset="1" stop-color="#83459F" stop-opacity="0"/>
</linearGradient>
<linearGradient id="paint29_linear_270_8072" x1="56.5" y1="6.80469" x2="56.5" y2="7.80469" gradientUnits="userSpaceOnUse">
<stop stop-color="#FFFEDA"/>
<stop offset="1" stop-color="#FFFEDA" stop-opacity="0.59"/>
</linearGradient>
<linearGradient id="paint30_linear_270_8072" x1="38.5" y1="17.8047" x2="38.5" y2="18.8047" gradientUnits="userSpaceOnUse">
<stop stop-color="#FFFEDA"/>
<stop offset="1" stop-color="#FFFEDA" stop-opacity="0.59"/>
</linearGradient>
<linearGradient id="paint31_linear_270_8072" x1="73.5" y1="10.8047" x2="73.5" y2="11.8047" gradientUnits="userSpaceOnUse">
<stop stop-color="#FFFEDA"/>
<stop offset="1" stop-color="#FFFEDA" stop-opacity="0.59"/>
</linearGradient>
<linearGradient id="paint32_linear_270_8072" x1="22.5" y1="13.8047" x2="22.5" y2="14.8047" gradientUnits="userSpaceOnUse">
<stop stop-color="#FFFEDA"/>
<stop offset="1" stop-color="#FFFEDA" stop-opacity="0.59"/>
</linearGradient>
<linearGradient id="paint33_linear_270_8072" x1="27" y1="6.80469" x2="27" y2="8.80469" gradientUnits="userSpaceOnUse">
<stop stop-color="#FFFEDA"/>
<stop offset="1" stop-color="#FFFEDA" stop-opacity="0.59"/>
</linearGradient>
<linearGradient id="paint34_linear_270_8072" x1="19.5" y1="7.80469" x2="19.5" y2="8.80469" gradientUnits="userSpaceOnUse">
<stop stop-color="#FFFEDA"/>
<stop offset="1" stop-color="#FFFEDA" stop-opacity="0.59"/>
</linearGradient>
<linearGradient id="paint35_linear_270_8072" x1="13.5" y1="15.8047" x2="13.5" y2="16.8047" gradientUnits="userSpaceOnUse">
<stop stop-color="#FFFEDA"/>
<stop offset="1" stop-color="#FFFEDA" stop-opacity="0.59"/>
</linearGradient>
<linearGradient id="paint36_linear_270_8072" x1="5.5" y1="9.80469" x2="5.5" y2="10.8047" gradientUnits="userSpaceOnUse">
<stop stop-color="#FFFEDA"/>
<stop offset="1" stop-color="#FFFEDA" stop-opacity="0.59"/>
</linearGradient>
<linearGradient id="paint37_linear_270_8072" x1="41.5" y1="10.8047" x2="41.5" y2="11.8047" gradientUnits="userSpaceOnUse">
<stop stop-color="#FFFEDA"/>
<stop offset="1" stop-color="#FFFEDA" stop-opacity="0.59"/>
</linearGradient>
<linearGradient id="paint38_linear_270_8072" x1="65" y1="4.80469" x2="65" y2="6.80469" gradientUnits="userSpaceOnUse">
<stop stop-color="#FFFEDA"/>
<stop offset="1" stop-color="#FFFEDA" stop-opacity="0.59"/>
</linearGradient>
</defs>
</svg>
