<svg width="80" height="37" viewBox="0 0 80 37" fill="none" xmlns="http://www.w3.org/2000/svg">
<mask id="mask0_270_12027" style="mask-type:alpha" maskUnits="userSpaceOnUse" x="0" y="0" width="80" height="37">
<rect y="0.804688" width="80" height="36" rx="18" fill="url(#paint0_linear_270_12027)"/>
</mask>
<g mask="url(#mask0_270_12027)">
<circle cx="22" cy="16.8047" r="9" fill="url(#paint1_linear_270_12027)"/>
<path d="M-1.59985 22.6031V28.6031L1.80015 44.4031C7.86681 46.6031 20.4401 51.1231 22.2001 51.6031C24.4001 52.2031 43.8001 55.4031 44.8001 55.8031C45.6001 56.1231 73.0001 46.0698 86.6001 41.0031L82.2001 24.2031L64.6001 21.4031L47.0001 19.8031L40.4001 20.6031L30.2001 17.2031L-1.59985 22.6031Z" fill="url(#paint2_linear_270_12027)"/>
<path d="M16.6 27.2039L9.19995 38.2039L46.3999 39.2039L37.7999 30.2039H36.7999L32.5999 23.8039H30.6L25.2 16.0039L19.2 27.2039H16.6Z" fill="url(#paint3_linear_270_12027)"/>
<path d="M41.8001 26.4031L34.4001 37.4031L71.6001 38.4031L63.0001 29.4031H62.0001L57.8001 23.0031H55.8001L50.4001 15.2031L44.4001 26.4031H41.8001Z" fill="url(#paint4_linear_270_12027)"/>
<path d="M59.1505 29.1066L50 42.7617L96 44.0031L85.3656 32.8307H84.129L78.9355 24.8859H76.4624L69.7849 15.2031L62.3656 29.1066H59.1505Z" fill="url(#paint5_linear_270_12027)"/>
<path d="M-2.04941 27.1066L-11.2 40.7617L34.8 42.0031L24.1656 30.8307H22.9291L17.7355 22.8859H15.2624L8.585 13.2031L1.16564 27.1066H-2.04941Z" fill="url(#paint6_linear_270_12027)"/>
<path d="M14.5128 28.9142C14.6321 28.3976 15.3679 28.3976 15.4872 28.9142L17.4566 37.4422C17.529 37.7555 17.291 38.0547 16.9694 38.0547H13.0306C12.709 38.0547 12.471 37.7555 12.5434 37.4422L14.5128 28.9142Z" fill="url(#paint7_linear_270_12027)"/>
<path d="M11.5101 30.209C11.6188 29.6755 12.3812 29.6755 12.4899 30.209L14.4758 39.9549C14.539 40.2647 14.3022 40.5547 13.9859 40.5547H10.0141C9.69782 40.5547 9.46101 40.2647 9.52415 39.9549L11.5101 30.209Z" fill="url(#paint8_linear_270_12027)"/>
<path d="M17.5101 30.209C17.6188 29.6755 18.3812 29.6755 18.4899 30.209L20.4758 39.9549C20.539 40.2647 20.3022 40.5547 19.9859 40.5547H16.0141C15.6978 40.5547 15.461 40.2647 15.5242 39.9549L17.5101 30.209Z" fill="url(#paint9_linear_270_12027)"/>
<path d="M21.5101 29.209C21.6188 28.6755 22.3812 28.6755 22.4899 29.209L24.4758 38.9549C24.539 39.2647 24.3022 39.5547 23.9859 39.5547H20.0141C19.6978 39.5547 19.461 39.2647 19.5242 38.9549L21.5101 29.209Z" fill="url(#paint10_linear_270_12027)"/>
<path d="M24.0152 29.7239C24.1424 29.2205 24.8576 29.2205 24.9848 29.7239L27.3739 39.1822C27.4536 39.4981 27.2149 39.8047 26.8891 39.8047H22.1109C21.7851 39.8047 21.5464 39.4981 21.6261 39.1822L24.0152 29.7239Z" fill="url(#paint11_linear_270_12027)"/>
<path d="M27.5101 30.209C27.6188 29.6755 28.3812 29.6755 28.4899 30.209L30.4758 39.9549C30.539 40.2647 30.3022 40.5547 29.9859 40.5547H26.0141C25.6978 40.5547 25.461 40.2647 25.5242 39.9549L27.5101 30.209Z" fill="url(#paint12_linear_270_12027)"/>
<path d="M29.5113 28.0618C29.6251 27.5362 30.3749 27.5362 30.4887 28.0618L32.4669 37.1989C32.5344 37.5104 32.297 37.8047 31.9782 37.8047H28.0218C27.703 37.8047 27.4656 37.5104 27.5331 37.1989L29.5113 28.0618Z" fill="url(#paint13_linear_270_12027)"/>
<path d="M34.0152 29.7239C34.1424 29.2205 34.8576 29.2205 34.9848 29.7239L37.3739 39.1822C37.4536 39.4981 37.2149 39.8047 36.8891 39.8047H32.1109C31.7851 39.8047 31.5464 39.4981 31.6261 39.1822L34.0152 29.7239Z" fill="url(#paint14_linear_270_12027)"/>
<path d="M38.0071 31.7076C38.1013 31.1526 38.8987 31.1526 38.9929 31.7076L40.5659 40.971C40.6178 41.2762 40.3826 41.5547 40.073 41.5547H36.927C36.6174 41.5547 36.3822 41.2762 36.4341 40.971L38.0071 31.7076Z" fill="url(#paint15_linear_270_12027)"/>
<path d="M41.5101 29.209C41.6188 28.6755 42.3812 28.6755 42.4899 29.209L44.4758 38.9549C44.539 39.2647 44.3022 39.5547 43.9859 39.5547H40.0141C39.6978 39.5547 39.461 39.2647 39.5242 38.9549L41.5101 29.209Z" fill="url(#paint16_linear_270_12027)"/>
<path d="M43.5101 31.209C43.6188 30.6755 44.3812 30.6755 44.4899 31.209L46.4758 40.9549C46.539 41.2647 46.3022 41.5547 45.9859 41.5547H42.0141C41.6978 41.5547 41.461 41.2647 41.5242 40.9549L43.5101 31.209Z" fill="url(#paint17_linear_270_12027)"/>
<path d="M45.5113 32.0618C45.6251 31.5362 46.3749 31.5362 46.4887 32.0618L48.4669 41.1989C48.5344 41.5104 48.297 41.8047 47.9782 41.8047H44.0218C43.703 41.8047 43.4656 41.5104 43.5331 41.1989L45.5113 32.0618Z" fill="url(#paint18_linear_270_12027)"/>
<path d="M48.5113 30.0618C48.6251 29.5362 49.3749 29.5362 49.4887 30.0618L51.4669 39.1989C51.5344 39.5104 51.297 39.8047 50.9782 39.8047H47.0218C46.703 39.8047 46.4656 39.5104 46.5331 39.1989L48.5113 30.0618Z" fill="url(#paint19_linear_270_12027)"/>
<path d="M52.0136 30.8509C52.1354 30.3384 52.8646 30.3384 52.9864 30.8509L55.3847 40.939C55.4594 41.2532 55.2212 41.5547 54.8983 41.5547H50.1017C49.7788 41.5547 49.5406 41.2532 49.6153 40.939L52.0136 30.8509Z" fill="url(#paint20_linear_270_12027)"/>
<path d="M55.5196 29.4688C55.6587 28.987 56.3413 28.987 56.4804 29.4688L59.2797 39.166C59.372 39.4857 59.1321 39.8047 58.7993 39.8047H53.2007C52.8679 39.8047 52.628 39.4857 52.7203 39.166L55.5196 29.4688Z" fill="url(#paint21_linear_270_12027)"/>
<path d="M59.0136 29.8509C59.1354 29.3384 59.8646 29.3384 59.9864 29.8509L62.3847 39.939C62.4594 40.2532 62.2212 40.5547 61.8983 40.5547H57.1017C56.7788 40.5547 56.5406 40.2532 56.6153 39.939L59.0136 29.8509Z" fill="url(#paint22_linear_270_12027)"/>
<path d="M62.5128 28.9142C62.6321 28.3976 63.3679 28.3976 63.4872 28.9142L65.4566 37.4422C65.529 37.7555 65.291 38.0547 64.9694 38.0547H61.0306C60.709 38.0547 60.471 37.7555 60.5434 37.4422L62.5128 28.9142Z" fill="url(#paint23_linear_270_12027)"/>
<path d="M65.5113 30.0618C65.6251 29.5362 66.3749 29.5362 66.4887 30.0618L68.4669 39.1989C68.5344 39.5104 68.297 39.8047 67.9782 39.8047H64.0218C63.703 39.8047 63.4656 39.5104 63.5331 39.1989L65.5113 30.0618Z" fill="url(#paint24_linear_270_12027)"/>
<path d="M68.5128 26.9142C68.6321 26.3976 69.3679 26.3976 69.4872 26.9142L71.4566 35.4422C71.529 35.7555 71.291 36.0547 70.9694 36.0547H67.0306C66.709 36.0547 66.471 35.7555 66.5434 35.4422L68.5128 26.9142Z" fill="url(#paint25_linear_270_12027)"/>
<path d="M71.5113 28.0618C71.6251 27.5362 72.3749 27.5362 72.4887 28.0618L74.4669 37.1989C74.5344 37.5104 74.297 37.8047 73.9782 37.8047H70.0218C69.703 37.8047 69.4656 37.5104 69.5331 37.1989L71.5113 28.0618Z" fill="url(#paint26_linear_270_12027)"/>
<path d="M9.00794 30.5319C9.10687 29.9836 9.89313 29.9836 9.99206 30.5319L11.5588 39.2159C11.6142 39.5226 11.3785 39.8047 11.0668 39.8047H7.93322C7.62154 39.8047 7.38582 39.5226 7.44116 39.2159L9.00794 30.5319Z" fill="url(#paint27_linear_270_12027)"/>
<path d="M6.51282 26.9142C6.63214 26.3976 7.36786 26.3976 7.48718 26.9142L9.45662 35.4422C9.52898 35.7555 9.29102 36.0547 8.96945 36.0547H5.03055C4.70898 36.0547 4.47102 35.7555 4.54338 35.4422L6.51282 26.9142Z" fill="url(#paint28_linear_270_12027)"/>
</g>
<path fill-rule="evenodd" clip-rule="evenodd" d="M51.1939 6.48495H42.9895C43.088 5.72878 43.7346 5.14481 44.5177 5.14481C44.5781 5.14481 44.6377 5.14829 44.6964 5.15506C45.0891 4.35524 45.9117 3.80469 46.8629 3.80469C47.944 3.80469 48.859 4.51588 49.1656 5.49594C49.3263 5.44204 49.4983 5.41284 49.6772 5.41284C50.3774 5.41284 50.9731 5.86034 51.1939 6.48495Z" fill="url(#paint29_linear_270_12027)"/>
<path fill-rule="evenodd" clip-rule="evenodd" d="M17.2044 9.21933H9C9.0985 8.46315 9.74514 7.87919 10.5282 7.87919C10.5886 7.87919 10.6482 7.88267 10.7068 7.88944C11.0996 7.08961 11.9222 6.53906 12.8734 6.53906C13.9545 6.53906 14.8695 7.25026 15.1761 8.23031C15.3368 8.17642 15.5088 8.14722 15.6877 8.14722C16.3879 8.14722 16.9836 8.59472 17.2044 9.21933Z" fill="url(#paint30_linear_270_12027)"/>
<path fill-rule="evenodd" clip-rule="evenodd" d="M50.4125 16.0689H34.3945C34.5868 14.5925 35.8493 13.4524 37.3781 13.4524C37.4961 13.4524 37.6125 13.4592 37.7269 13.4724C38.4937 11.9108 40.0998 10.8359 41.9569 10.8359C44.0676 10.8359 45.854 12.2245 46.4526 14.1379C46.7663 14.0327 47.1022 13.9757 47.4515 13.9757C48.8185 13.9757 49.9815 14.8494 50.4125 16.0689Z" fill="url(#paint31_linear_270_12027)"/>
<path fill-rule="evenodd" clip-rule="evenodd" d="M74.0153 18.8035H58.0715C57.9195 18.4437 57.8354 18.0483 57.8354 17.6332C57.8354 15.9714 59.1826 14.6243 60.8444 14.6243C60.9624 14.6243 61.0788 14.6311 61.1932 14.6443C61.96 13.0827 63.5661 12.0078 65.4232 12.0078C67.5339 12.0078 69.3203 13.3963 69.9188 15.3098C70.2326 15.2046 70.5685 15.1476 70.9177 15.1476C72.6518 15.1476 74.0575 16.5533 74.0575 18.2873C74.0575 18.4631 74.043 18.6355 74.0153 18.8035Z" fill="url(#paint32_linear_270_12027)"/>
<defs>
<linearGradient id="paint0_linear_270_12027" x1="40" y1="0.804687" x2="40" y2="36.8047" gradientUnits="userSpaceOnUse">
<stop stop-color="#ABFAFF"/>
<stop offset="1" stop-color="#D5FFAB"/>
</linearGradient>
<linearGradient id="paint1_linear_270_12027" x1="22" y1="5.87612" x2="22" y2="25.8047" gradientUnits="userSpaceOnUse">
<stop offset="0.370713" stop-color="#F6F061"/>
<stop offset="0.699362" stop-color="#61EDF6" stop-opacity="0"/>
</linearGradient>
<linearGradient id="paint2_linear_270_12027" x1="42.5001" y1="17.2031" x2="42.5001" y2="55.8106" gradientUnits="userSpaceOnUse">
<stop stop-color="#9FDEF2"/>
<stop offset="0.553516" stop-color="#A8FFAC"/>
</linearGradient>
<linearGradient id="paint3_linear_270_12027" x1="27.7999" y1="16.0039" x2="27.7999" y2="39.2039" gradientUnits="userSpaceOnUse">
<stop offset="0.290234" stop-color="#86D2A0"/>
<stop offset="1" stop-color="#517D91"/>
</linearGradient>
<linearGradient id="paint4_linear_270_12027" x1="53.0001" y1="15.2031" x2="53.0001" y2="38.4031" gradientUnits="userSpaceOnUse">
<stop offset="0.290234" stop-color="#86D2A0"/>
<stop offset="1" stop-color="#517D91"/>
</linearGradient>
<linearGradient id="paint5_linear_270_12027" x1="73" y1="15.2031" x2="73" y2="44.0031" gradientUnits="userSpaceOnUse">
<stop offset="0.290234" stop-color="#86D2A0"/>
<stop offset="1" stop-color="#517D91"/>
</linearGradient>
<linearGradient id="paint6_linear_270_12027" x1="11.8" y1="13.2031" x2="11.8" y2="42.0031" gradientUnits="userSpaceOnUse">
<stop offset="0.290234" stop-color="#86D2A0"/>
<stop offset="1" stop-color="#517D91"/>
</linearGradient>
<linearGradient id="paint7_linear_270_12027" x1="15" y1="26.8047" x2="15" y2="41.8047" gradientUnits="userSpaceOnUse">
<stop stop-color="#236B70"/>
<stop offset="1" stop-color="#519DA2" stop-opacity="0"/>
</linearGradient>
<linearGradient id="paint8_linear_270_12027" x1="12" y1="27.8047" x2="12" y2="44.8047" gradientUnits="userSpaceOnUse">
<stop stop-color="#236B70"/>
<stop offset="1" stop-color="#519DA2" stop-opacity="0"/>
</linearGradient>
<linearGradient id="paint9_linear_270_12027" x1="18" y1="27.8047" x2="18" y2="44.8047" gradientUnits="userSpaceOnUse">
<stop stop-color="#236B70"/>
<stop offset="1" stop-color="#519DA2" stop-opacity="0"/>
</linearGradient>
<linearGradient id="paint10_linear_270_12027" x1="22" y1="26.8047" x2="22" y2="43.8047" gradientUnits="userSpaceOnUse">
<stop stop-color="#236B70"/>
<stop offset="1" stop-color="#519DA2" stop-opacity="0"/>
</linearGradient>
<linearGradient id="paint11_linear_270_12027" x1="24.5" y1="27.8047" x2="24.5" y2="43.8047" gradientUnits="userSpaceOnUse">
<stop stop-color="#236B70"/>
<stop offset="1" stop-color="#519DA2" stop-opacity="0"/>
</linearGradient>
<linearGradient id="paint12_linear_270_12027" x1="28" y1="27.8047" x2="28" y2="44.8047" gradientUnits="userSpaceOnUse">
<stop stop-color="#236B70"/>
<stop offset="1" stop-color="#519DA2" stop-opacity="0"/>
</linearGradient>
<linearGradient id="paint13_linear_270_12027" x1="30" y1="25.8047" x2="30" y2="41.8047" gradientUnits="userSpaceOnUse">
<stop stop-color="#236B70"/>
<stop offset="1" stop-color="#519DA2" stop-opacity="0"/>
</linearGradient>
<linearGradient id="paint14_linear_270_12027" x1="34.5" y1="27.8047" x2="34.5" y2="43.8047" gradientUnits="userSpaceOnUse">
<stop stop-color="#236B70"/>
<stop offset="1" stop-color="#519DA2" stop-opacity="0"/>
</linearGradient>
<linearGradient id="paint15_linear_270_12027" x1="38.5" y1="28.8047" x2="38.5" y2="45.8047" gradientUnits="userSpaceOnUse">
<stop stop-color="#236B70"/>
<stop offset="1" stop-color="#519DA2" stop-opacity="0"/>
</linearGradient>
<linearGradient id="paint16_linear_270_12027" x1="42" y1="26.8047" x2="42" y2="43.8047" gradientUnits="userSpaceOnUse">
<stop stop-color="#236B70"/>
<stop offset="1" stop-color="#519DA2" stop-opacity="0"/>
</linearGradient>
<linearGradient id="paint17_linear_270_12027" x1="44" y1="28.8047" x2="44" y2="45.8047" gradientUnits="userSpaceOnUse">
<stop stop-color="#236B70"/>
<stop offset="1" stop-color="#519DA2" stop-opacity="0"/>
</linearGradient>
<linearGradient id="paint18_linear_270_12027" x1="46" y1="29.8047" x2="46" y2="45.8047" gradientUnits="userSpaceOnUse">
<stop stop-color="#236B70"/>
<stop offset="1" stop-color="#519DA2" stop-opacity="0"/>
</linearGradient>
<linearGradient id="paint19_linear_270_12027" x1="49" y1="27.8047" x2="49" y2="43.8047" gradientUnits="userSpaceOnUse">
<stop stop-color="#236B70"/>
<stop offset="1" stop-color="#519DA2" stop-opacity="0"/>
</linearGradient>
<linearGradient id="paint20_linear_270_12027" x1="52.5" y1="28.8047" x2="52.5" y2="45.8047" gradientUnits="userSpaceOnUse">
<stop stop-color="#236B70"/>
<stop offset="1" stop-color="#519DA2" stop-opacity="0"/>
</linearGradient>
<linearGradient id="paint21_linear_270_12027" x1="56" y1="27.8047" x2="56" y2="43.8047" gradientUnits="userSpaceOnUse">
<stop stop-color="#236B70"/>
<stop offset="1" stop-color="#519DA2" stop-opacity="0"/>
</linearGradient>
<linearGradient id="paint22_linear_270_12027" x1="59.5" y1="27.8047" x2="59.5" y2="44.8047" gradientUnits="userSpaceOnUse">
<stop stop-color="#236B70"/>
<stop offset="1" stop-color="#519DA2" stop-opacity="0"/>
</linearGradient>
<linearGradient id="paint23_linear_270_12027" x1="63" y1="26.8047" x2="63" y2="41.8047" gradientUnits="userSpaceOnUse">
<stop stop-color="#236B70"/>
<stop offset="1" stop-color="#519DA2" stop-opacity="0"/>
</linearGradient>
<linearGradient id="paint24_linear_270_12027" x1="66" y1="27.8047" x2="66" y2="43.8047" gradientUnits="userSpaceOnUse">
<stop stop-color="#236B70"/>
<stop offset="1" stop-color="#519DA2" stop-opacity="0"/>
</linearGradient>
<linearGradient id="paint25_linear_270_12027" x1="69" y1="24.8047" x2="69" y2="39.8047" gradientUnits="userSpaceOnUse">
<stop stop-color="#236B70"/>
<stop offset="1" stop-color="#519DA2" stop-opacity="0"/>
</linearGradient>
<linearGradient id="paint26_linear_270_12027" x1="72" y1="25.8047" x2="72" y2="41.8047" gradientUnits="userSpaceOnUse">
<stop stop-color="#236B70"/>
<stop offset="1" stop-color="#519DA2" stop-opacity="0"/>
</linearGradient>
<linearGradient id="paint27_linear_270_12027" x1="9.5" y1="27.8047" x2="9.5" y2="43.8047" gradientUnits="userSpaceOnUse">
<stop stop-color="#236B70"/>
<stop offset="1" stop-color="#519DA2" stop-opacity="0"/>
</linearGradient>
<linearGradient id="paint28_linear_270_12027" x1="7" y1="24.8047" x2="7" y2="39.8047" gradientUnits="userSpaceOnUse">
<stop stop-color="#236B70"/>
<stop offset="1" stop-color="#519DA2" stop-opacity="0"/>
</linearGradient>
<linearGradient id="paint29_linear_270_12027" x1="47.0917" y1="3.80469" x2="47.0917" y2="6.48495" gradientUnits="userSpaceOnUse">
<stop stop-color="#A8E0FF"/>
<stop offset="1" stop-color="#7FE0FF" stop-opacity="0"/>
</linearGradient>
<linearGradient id="paint30_linear_270_12027" x1="13.1022" y1="6.53906" x2="13.1022" y2="9.21933" gradientUnits="userSpaceOnUse">
<stop stop-color="#A8E0FF"/>
<stop offset="1" stop-color="#7FE0FF" stop-opacity="0"/>
</linearGradient>
<linearGradient id="paint31_linear_270_12027" x1="42.4035" y1="10.8359" x2="42.4035" y2="16.0689" gradientUnits="userSpaceOnUse">
<stop stop-color="#94DFFF"/>
<stop offset="1" stop-color="#7FE0FF" stop-opacity="0"/>
</linearGradient>
<linearGradient id="paint32_linear_270_12027" x1="61.9376" y1="13.5705" x2="61.9376" y2="18.8035" gradientUnits="userSpaceOnUse">
<stop stop-color="#A8E0FF"/>
<stop offset="1" stop-color="#7FE0FF" stop-opacity="0"/>
</linearGradient>
</defs>
</svg>
